<?xml version="1.0" encoding="utf-8"?>
<!-- Generator: Adobe Illustrator 14.0.0, SVG Export Plug-In . SVG Version: 6.00 Build 43363)  -->
<!DOCTYPE svg PUBLIC "-//W3C//DTD SVG 1.1//EN" "http://www.w3.org/Graphics/SVG/1.1/DTD/svg11.dtd">
<svg version="1.1" id="Calque_1" xmlns="http://www.w3.org/2000/svg" xmlns:xlink="http://www.w3.org/1999/xlink" x="0px" y="0px"
	 width="841.89px" height="595.28px" viewBox="0 0 841.89 595.28" enable-background="new 0 0 841.89 595.28" xml:space="preserve">
<g>
	<path fill="#2E202B" d="M525.25,137.045c0.011-0.084,0.015-0.125,0.015-0.125c-10.978,2.743-20.44,9.503-31.507,10.005
		c-0.361,0.115-0.725,0.227-1.074,0.335c-10.926,2.36-21.836,7.352-32.815,10.817c-0.499,0.158-1.001,0.312-1.509,0.463
		c-10.316,2.753-19.781,5.458-30.982,8.814c-0.324,0.1-0.621,0.192-0.889,0.273c-1.062,0.326-1.639,0.505-1.639,0.505
		s-0.141-0.084-0.407-0.245c-0.267-0.16-0.659-0.397-1.163-0.695c-15.795-7.251-30.667-18.066-45.827-27.525
		c-0.367-0.229-0.7-0.431-1.005-0.617c-1.527-0.917-2.409-1.446-2.409-1.446s-0.519,2.812-1.436,7.785
		c-0.06,0.332-0.113,0.675-0.151,1.04c-0.672,5.149-1.49,10.297-2.4,15.455c-0.092,0.515-0.183,1.032-0.275,1.546
		c-3.196,17.447-6.785,34.261-10.131,51.093h45.708c-0.452-0.708-0.687-0.979-0.62-1.153c0.096-0.257,0.588-0.394,0.906-0.583
		c0.184,0.284,0.49,0.56,0.518,0.857c0.025,0.232-0.074,0.483-0.219,0.879h87.489c0.145-0.333,0.292-0.667,0.437-1
		c0.093-0.188,0.174-0.379,0.263-0.569c-0.117,0.011-0.234,0.025-0.354,0.038c-0.015-0.298-0.03-0.592-0.047-0.888
		c0.245,0.049,0.571,0.035,0.712,0.172v0.001c5.168-11.288,7.914-22.955,14.221-32.789c0.235-0.5,0.472-0.997,0.711-1.498
		c0.717-1.5,1.453-3.008,2.215-4.53c1.351-5.407,2.703-10.815,4.466-15.937c0.186-0.46,0.369-0.915,0.549-1.363
		c1.263-3.134,2.394-5.946,3.371-8.375c0.151-0.379,0.299-0.748,0.443-1.107C521.047,142.367,526.453,141.014,525.25,137.045z
		 M376.605,206.533c-0.805-0.522-1.442-0.938-2.08-1.354c0.307-0.122,0.662-0.397,0.911-0.335c0.569,0.143,1.105,0.429,1.603,0.728
		C377.094,205.605,376.804,206.104,376.605,206.533z M378.829,189.53c-0.704-0.7-1.19-1.045-1.425-1.5
		c-0.073-0.137,0.589-0.833,0.852-0.805c0.437,0.046,1.004,0.405,1.171,0.764C379.554,188.267,379.157,188.744,378.829,189.53z
		 M390.167,174.673c-0.151-0.002-0.296-0.425-0.446-0.655c0.627-0.145,1.25-0.309,1.886-0.403c0.068-0.011,0.214,0.378,0.468,0.858
		C391.373,174.558,390.769,174.682,390.167,174.673z M398.181,162.502c-0.419-0.576-0.84-1.152-1.261-1.729
		c0.218-0.087,0.57-0.301,0.63-0.245c0.45,0.402,0.841,0.854,1.214,1.251C398.472,162.141,398.326,162.321,398.181,162.502z
		 M401.36,189.979c0.073-1.087,0.085-2.18,0.249-3.255c0.061-0.386,0.489-0.725,0.75-1.084c0.219,0.408,0.439,0.815,0.744,1.378
		C402.506,188.03,401.932,189.005,401.36,189.979z M407.145,172.023c-0.113-0.195-0.375-0.473-0.31-0.57
		c0.173-0.252,0.489-0.427,0.747-0.631c0.103,0.204,0.205,0.408,0.376,0.749C407.699,171.715,407.422,171.87,407.145,172.023z
		 M421.781,170.796c0.244,0.235,0.592,0.479,0.553,0.55c-0.166,0.297-0.445,0.545-0.683,0.811l-0.745-0.672
		C421.197,171.255,421.492,171.024,421.781,170.796z M421.062,177.066c0.002-0.171,0.218-0.341,0.342-0.512
		c0.156,0.156,0.313,0.311,0.469,0.467c-0.148,0.167-0.296,0.336-0.443,0.501C421.297,177.372,421.061,177.218,421.062,177.066z
		 M422.615,209.905c-0.428-0.132-0.896-0.275-1.361-0.418c0.25-0.261,0.541-0.764,0.741-0.737c0.809,0.114,1.59,0.389,2.381,0.604
		C423.828,209.525,423.279,209.696,422.615,209.905z M446.559,163.151c0.413,0.374,0.69,0.87,1.152,1.5
		c-0.617,0.209-1.161,0.457-1.206,0.399c-0.365-0.483-0.639-1.025-0.939-1.551C445.909,163.373,446.458,163.061,446.559,163.151z
		 M448.818,207.908c-0.357-0.014-0.877-0.069-1.023-0.283c-0.354-0.521-0.573-1.129-0.759-1.725
		c-0.056-0.184,0.104-0.53,0.286-0.635c0.174-0.1,0.648-0.073,0.737,0.049c0.453,0.611,0.821,1.27,1.163,1.821
		C449.033,207.511,448.915,207.912,448.818,207.908z M446.901,192.757c-0.147,0.09-0.756-0.424-1.149-0.659
		c0.748-0.817,1.476-1.652,2.291-2.413c0.056-0.052,0.751,0.452,1.607,0.979C448.551,191.532,447.778,192.214,446.901,192.757z
		 M449.767,176.943h-1.241c0.013-0.055,0.025-0.162,0.043-0.162c0.409-0.005,0.823-0.003,1.234,0
		C449.788,176.845,449.775,176.912,449.767,176.943z M466.755,173.668c-0.222-0.07-0.364-0.334-0.546-0.519l0.877-0.41
		c0.101,0.219,0.2,0.44,0.301,0.66C467.174,173.5,466.913,173.715,466.755,173.668z M468.959,180.172
		c-0.236-0.231-0.407-0.521-0.599-0.789c0.191-0.097,0.381-0.194,0.665-0.338c0.173,0.288,0.342,0.573,0.512,0.855
		C469.337,179.999,469,180.21,468.959,180.172z M476.515,154.135c-0.328-0.261-0.499-0.397-0.67-0.537
		c0.365-0.256,0.715-0.539,1.112-0.749c0.065-0.035,0.335,0.241,0.512,0.374C477.148,153.529,476.828,153.835,476.515,154.135z
		 M480.404,181.604c-0.166-0.295-0.398-0.578-0.463-0.89c-0.021-0.103,0.45-0.431,0.602-0.386c0.316,0.089,0.567,0.36,1.046,0.696
		C481.042,181.292,480.723,181.448,480.404,181.604z M490.213,166.365c-0.596-0.634-1.233-1.242-1.745-1.929
		c-0.108-0.147,0.25-0.577,0.636-1.386c0.8,1.083,1.385,1.818,1.869,2.605C491.023,165.742,490.479,166.122,490.213,166.365z
		 M501.116,185.384c-0.265-0.048-0.454-0.435-0.679-0.672c0.288-0.19,0.568-0.511,0.866-0.528c0.315-0.018,0.653,0.257,1.291,0.543
		C501.718,185.14,501.378,185.433,501.116,185.384z M504.743,154.229c-0.087-0.299-0.188-0.596-0.252-0.9
		c-0.013-0.054,0.133-0.133,0.201-0.2c0.121,0.301,0.241,0.603,0.354,0.884C504.91,154.111,504.827,154.171,504.743,154.229z
		 M392.755,385.333c-0.783,0.493-1.208,0.762-1.632,1.03c0.271,0.273,0.493,0.621,0.826,0.807c0.589,0.328,1.225,0.64,1.888,0.781
		c0.186,0.038,0.825-0.747,0.767-0.817C394.078,386.518,393.442,385.976,392.755,385.333z M375.15,398.61
		c-0.021-0.009-0.04-0.021-0.059-0.029c-0.113-0.051-0.766,0.517-0.728,0.582c0.372,0.619,0.839,1.191,1.276,1.772
		c0.377-0.284,0.753-0.573,1.477-1.126c-0.453-0.285-0.817-0.533-1.152-0.742c-0.361,0.25-0.692,0.482-1.022,0.713
		c-0.09-0.218-0.331-0.525-0.25-0.634C374.834,398.961,374.994,398.788,375.15,398.61z M367.228,390.593
		c-0.512-0.147-0.892-0.38-1.169-0.306c-0.329,0.086-0.569,0.438-0.847,0.675c0.401,0.183,0.795,0.478,1.21,0.501
		C366.631,391.474,366.874,390.994,367.228,390.593z M334.48,349.214c2.701,0,6.76,0,8.832-0.472h18.328
		c0.087-0.123,0.184-0.254,0.282-0.403c0.063,0.152,0.122,0.277,0.174,0.403c4.347,0,7.455,0,7.455,0s-0.766,2.411-2.117,6.666
		c1.936-0.173,3.841-0.427,5.689-0.837c0.063-0.015,0.13-0.029,0.194-0.045c0.58-0.132,1.156-0.277,1.725-0.443
		c0.189-0.029,0.379-0.056,0.571-0.083c8.609-1.934,20.012-3.969,34.322-5.458c27.77-2.89,55.77,0.275,67.859,2.006
		c0.856-0.926,1.705-1.842,2.567-2.776c0.357-0.386,0.714-0.774,1.064-1.158c3.117-5.512,8.525-8.215,11.891-13.246
		c0.097-0.108,0.19-0.22,0.284-0.329H337.95C337.03,337.81,335.756,344.106,334.48,349.214z M477.857,342.192
		c0.285-0.103,0.706,0.11,1.491,0.269c-0.839,0.38-1.287,0.636-1.775,0.774c-0.18,0.052-0.455-0.171-0.688-0.267
		C477.206,342.698,477.479,342.324,477.857,342.192z M424.086,342.06c0.06-0.021,0.275,0.279,0.5,0.512
		c-0.318,0.165-0.6,0.363-0.918,0.444c-0.092,0.023-0.29-0.294-0.439-0.454C423.51,342.387,423.779,342.184,424.086,342.06z
		 M388.437,340.824c0.504-0.013,1.016,0.288,2.015,0.616c-1.355,0.686-1.748,1.022-1.927,0.948c-0.408-0.173-0.71-0.548-1.058-0.841
		C387.79,341.292,388.106,340.831,388.437,340.824z M383.066,338.017c0.245-0.062,0.621,0.31,1.225,0.64
		c-0.653,0.297-1.065,0.583-1.517,0.647c-0.224,0.029-0.516-0.351-0.781-0.542C382.347,338.497,382.663,338.116,383.066,338.017z
		 M377.572,342.747c0.143-0.265,0.54-0.418,0.825-0.619c0.066,0.22,0.216,0.452,0.182,0.661c-0.06,0.369-0.209,0.734-0.369,1.082
		c-0.226,0.496-0.497,0.971-0.745,1.455c-0.049-0.486-0.096-0.975-0.124-1.237C377.431,343.485,377.397,343.066,377.572,342.747z
		 M366.238,334.754c0.25-0.1,0.892,0.583,1.733,1.174c-1.037,0.497-1.637,0.929-2.3,1.037c-0.288,0.047-0.71-0.563-1.071-0.875
		C365.135,335.62,365.6,335.015,366.238,334.754z M364.081,342.591c0.158,0.306,0.354,0.604,0.446,0.929
		c0.021,0.066-0.341,0.222-0.615,0.39c-0.124-0.339-0.29-0.647-0.328-0.968C363.57,342.841,363.903,342.709,364.081,342.591z
		 M421.52,403.657c-0.07-0.106-0.144-0.217-0.225-0.314c-0.023-0.025-0.555,0.197-0.564,0.271c-0.025-0.002-0.053-0.004-0.08-0.004
		c-0.553-0.023-1.105-0.045-1.646-0.068c-8.816-1.11-16.929-1.11-26.585,0.206c-0.563,0.031-1.118,0.061-1.671,0.093
		c-3.318,0.192-6.636,0.437-9.949,0.74c-0.551,0.051-1.104,0.103-1.656,0.155c-9.512,0.399-18.977,1.752-28.013,4.057
		c-0.224,0.043-0.448,0.087-0.674,0.13c-1.127,5.224-3.813,10.612-5.294,16.671c-0.113,0.35-0.222,0.699-0.335,1.052
		c-7.645,13.147-6.966,30.048-13.41,42.317c-0.124,0.344-0.235,0.682-0.346,1.02c-1.954,6.162-3.855,12.153-5.665,17.854
		c-0.1,0.312-0.198,0.623-0.296,0.933c-2.797,7.807-4.15,15.917-7.225,22.826c-0.149,0.48-0.301,0.957-0.457,1.429
		c-1.852,5.673-4.042,10.958-5.616,16.479c-0.156,0.499-0.305,1.002-0.478,1.525c0.163,2.049-2.541,4.752-2.541,7.457
		c2.704-1.353,2.704-4.055,5.567-5.525c0.41-0.405,0.774-0.783,1.139-1.166c9.104-10.041,15.779-22.138,27.688-31.809
		c0.227-0.201,0.436-0.4,0.679-0.602c12.657-13.988,24.874-27.901,37.704-41.57c0.354-0.382,0.706-0.766,1.058-1.147
		c1.76-1.919,3.517-3.837,5.271-5.759c0.369-0.403,0.716-0.794,1.02-1.152c1.872-1.729,3.533-3.532,5.114-5.357
		c-0.488-0.136-1.235-0.271-1.841-0.619c-1.519-0.876-1.406-1.742,0.292-2.525c1.436-0.665,2.855-1.961,4.276-0.093
		c2.766-3.357,5.447-6.699,8.712-9.727c0.364-0.41,0.729-0.819,1.097-1.23c1.46-1.636,2.92-3.278,4.381-4.925
		c0.364-0.411,0.729-0.822,1.09-1.231c4.908-7.235,11.668-12.645,16.469-18.745c0.341-0.392,0.683-0.785,1.023-1.18
		c-0.271-0.021-0.547-0.042-0.814-0.063C426.318,403.894,423.92,403.766,421.52,403.657z M325.728,514.99
		c-0.301-0.009-0.593-0.212-0.89-0.331c0.196-0.271,0.391-0.54,0.7-0.969c0.337,0.383,0.595,0.604,0.728,0.877
		C326.297,514.636,325.911,514.996,325.728,514.99z M331.839,473.093c-0.313-0.096-0.565-0.351-0.843-0.54
		c0.224-0.092,0.448-0.183,0.781-0.319c0.232,0.194,0.501,0.416,0.768,0.638C332.306,472.953,332.024,473.148,331.839,473.093z
		 M335.673,485.948c-0.356-0.448-0.774-0.928-0.749-0.946c0.571-0.449,1.176-0.873,1.831-1.217c0.072-0.036,0.48,0.444,0.734,0.685
		C336.925,484.928,336.362,485.388,335.673,485.948z M338.364,460.851c-0.244-0.188-0.418-0.443-0.619-0.679
		c0.19-0.115,0.444-0.368,0.557-0.322c0.275,0.104,0.487,0.348,0.756,0.562C338.725,460.623,338.404,460.884,338.364,460.851z
		 M340.634,491.938c-0.227-0.192-0.495-0.358-0.651-0.584c-0.038-0.057,0.292-0.315,0.453-0.482c0.168,0.16,0.335,0.319,0.505,0.482
		C340.838,491.547,340.736,491.741,340.634,491.938z M343.907,484.509c-0.091,0.049-0.712-0.43-0.672-0.542
		c0.148-0.407,0.476-0.765,0.734-1.14c0.282,0.203,0.563,0.404,1.071,0.77C344.594,483.979,344.291,484.312,343.907,484.509z
		 M351.673,459.517c-0.322-0.329-0.544-0.554-0.766-0.779c0.476-0.358,0.913-0.791,1.455-1.02c0.118-0.051,0.615,0.629,0.938,0.972
		C352.793,458.947,352.286,459.205,351.673,459.517z M367.072,413.679c0.021-0.213-0.029-0.58,0.077-0.619
		c0.869-0.341,1.758-0.645,2.663-0.896c0.117-0.035,0.352,0.271,0.64,0.508c-0.386,0.166-0.706,0.352-1.058,0.447
		C368.628,413.331,367.847,413.495,367.072,413.679z M370.789,445.261c-0.629-0.597-0.873-0.83-1.116-1.06
		c0.288-0.207,0.572-0.568,0.862-0.572c0.256-0.007,0.696,0.365,0.734,0.612C371.316,444.517,371.004,444.842,370.789,445.261z
		 M396.767,423.14c-0.011-0.351-0.075-0.713,0-1.046c0.025-0.117,0.562-0.269,0.585-0.236c0.198,0.266,0.33,0.573,0.555,1.005
		C397.424,422.98,397.096,423.059,396.767,423.14z M406.359,417.012c-0.145,0.324-0.805,0.461-1.237,0.684
		c-0.038-0.325-0.155-0.666-0.089-0.974c0.084-0.39,0.314-0.755,0.84-1.925C406.197,416.129,406.518,416.658,406.359,417.012z
		 M410.693,405.311c-0.243-0.572-0.531-0.915-0.459-1.178c0.072-0.261,0.478-0.538,0.798-0.617c0.29-0.069,0.659,0.113,0.995,0.185
		C411.732,404.055,411.438,404.41,410.693,405.311z M438.434,371.377c-0.024,0.202,0.136,0.422,0.215,0.636
		c0.209-0.225,0.418-0.448,0.608-0.649c-0.213-0.26-0.344-0.422-0.476-0.584C438.659,370.978,438.457,371.168,438.434,371.377z
		 M372.101,379.03c0.205,0.535,0.504,1.05,0.837,1.536c0.025,0.038,0.516-0.182,0.925-0.329c-0.374-0.674-0.653-1.182-0.934-1.688
		C372.639,378.713,372.076,378.962,372.101,379.03z M426.89,368.18c-0.378-0.469-0.655-1.066-1.153-1.38
		c-0.895-0.562-1.919-0.953-3.19-1.56c-0.286,0.422-0.776,0.951-0.688,1.045c0.911,0.991,1.822,2.023,2.958,2.771
		C425.109,369.252,426.178,368.498,426.89,368.18z M370.621,368.637c0.053,0.386,0.589,0.717,0.904,1.073
		c0.952-0.852,1.906-1.7,2.857-2.55c-0.527-0.079-1.052-0.157-2.249-0.337C371.124,366.533,370.417,367.184,370.621,368.637z
		 M352.002,406.564c-0.318,0.079-0.728,0.359-0.798,0.617c-0.073,0.263,0.215,0.608,0.458,1.181c0.745-0.905,1.04-1.259,1.333-1.613
		C352.661,406.676,352.292,406.492,352.002,406.564z M394.096,401.551c0.495,0.374,1.041,0.696,1.569,1.033
		c0.061-0.182,0.216-0.393,0.159-0.537c-0.227-0.586-0.521-1.148-1.059-2.288C394.226,401.179,394.031,401.503,394.096,401.551z
		 M417.273,385.25c-0.147-0.302-0.238-0.486-0.328-0.67c-0.322,0.153-0.655,0.294-0.948,0.484c-0.027,0.017,0.233,0.521,0.304,0.51
		C416.634,385.521,416.947,385.367,417.273,385.25z"/>
	<g>
		<path fill="#2E202B" d="M409.17,120.576c0.715-0.172,1.023-0.915,0.898-1.581c-0.109-0.587-0.275-1.082-0.598-1.541
			c-0.027-0.476-0.002-0.938-0.029-1.416c-0.039-0.573-0.311-1.098-0.535-1.614c-0.502-1.158-2.037-0.601-2.397,0.313
			c-0.085,0.212-0.166,0.427-0.247,0.642l0.015-0.005c-0.091,0.311-0.07,0.657,0.112,0.969c0.204,0.349,0.534,0.534,0.885,0.585
			c0.074,0.138,0.153,0.272,0.223,0.417c0.285,0.58,0.059,1.325,0.045,1.99c-0.008,0.513,0.406,1.152,0.945,1.24
			C408.73,120.617,408.928,120.635,409.17,120.576z"/>
		<path fill="#2E202B" d="M540.329,135.075c0.254-0.083,0.544-0.177,0.888-0.177c0.164,0,0.326,0.021,0.567,0.088l0.322,0.173
			l7.705-6.644c-0.126-0.209-0.311-0.395-0.539-0.624c-0.065-0.068-0.127-0.13-0.191-0.181l-8.938,7.423
			C540.2,135.115,540.264,135.095,540.329,135.075z"/>
		<path fill="#2E202B" d="M381.071,74.305c-0.049-0.157-0.194-0.25-0.388-0.25c-0.098,0-0.214,0.026-0.32,0.073
			c-0.393,0.17-0.653,0.606-0.562,0.931l5.688,20.319c0.826,0.168,1.658,0.353,2.288,0.787L381.071,74.305z"/>
		<path fill="#2E202B" d="M380.913,129.835c-0.136,0.049-0.264,0.083-0.462,0.097l0.277,0.651l3.128,1.88l-1.535-3.344
			C381.997,129.468,381.573,129.759,380.913,129.835z"/>
		<path fill="#2E202B" d="M411.473,134.975l0.465-0.62l-1.812-10.115l-0.159,0.125c-0.581,0.457-1.127,0.89-1.813,1.225
			l3.576,23.618l3.148,1.892l-2.744-15.78L411.473,134.975z"/>
		<path fill="#2E202B" d="M378.66,122.805c-0.48,0-0.902,0.066-1.199,0.143l0.707,1.68c0.038-0.066,0.077-0.132,0.117-0.201
			c0.243-0.419,0.49-0.854,0.871-1.171l0.205-0.173l0.344,0.018l-0.096-0.229C379.3,122.833,378.98,122.805,378.66,122.805z"/>
		<path fill="#2E202B" d="M406.343,109.22l0.354-0.119c0.242-0.085,0.492-0.19,0.768-0.32l-1.896-10.888
			c-0.062-0.141-0.115-0.299-0.18-0.507c-0.033-0.104-0.096-0.304-0.182-0.5c-0.083-0.339-0.283-0.549-0.539-0.814
			c-0.367-0.382-0.824-0.857-0.744-1.812l0.027-0.348c0,0,0.439-0.267,0.535-0.331c0.094-0.068,0.186-0.132,0.283-0.188
			l-0.719-4.121c-0.032-0.189-0.184-0.304-0.406-0.304c-0.078,0-0.154,0.013-0.229,0.038c-0.405,0.135-0.717,0.561-0.661,0.914
			l1.553,10.48c0.643,0.201,1.041,0.595,1.193,1.176l0.177,0.672l-0.679,0.157c-0.119,0.027-0.234,0.04-0.35,0.045l1.19,8.033
			c0.209-0.285,0.343-0.578,0.42-0.898L406.343,109.22z"/>
		<path fill="#2E202B" d="M399.428,134.428l0.087,0.279l0.005,0.153l-0.012,0.063c-0.15,0.984-0.561,1.756-1.324,2.423l-0.143,0.066
			l-0.062,0.015c-0.191,0.051-0.38,0.077-0.561,0.077c-0.021,0-0.046,0-0.066-0.001l1.037,3.69l3.947,2.373l-3.145-10.261
			C399.191,133.689,399.306,134.05,399.428,134.428z"/>
		<path fill="#2E202B" d="M510.739,196.087l60.715-27.473c0.229-0.248,0.509-0.478,0.747-0.615l0.263-0.149l0.261,0.09l0.136,0.03
			l25.022-11.322c0.391-0.175,0.652-0.612,0.559-0.93c-0.047-0.161-0.193-0.256-0.393-0.256c-0.103,0-0.207,0.022-0.312,0.068
			l-10.201,4.434l-0.245,0.854l-0.675-0.496l-74.38,32.044L510.739,196.087z"/>
		<path fill="#2E202B" d="M388.383,98.324c-0.476,0.33-1.037,0.642-1.767,0.981l6.166,21.97c0.169,0.326,0.352,0.634,0.586,1.024
			c0.297,0.5,0.581,0.977,0.793,1.503c0.754-0.162,1.328-0.503,1.83-0.866L388.383,98.324z"/>
		<path fill="#2E202B" d="M329.099,161.698l-0.079,0.254l-0.229,0.132c-0.278,0.159-0.55,0.367-0.883,0.672l28.082,20.494
			l0.555-3.012l-27.315-18.9C329.229,161.337,329.129,161.605,329.099,161.698z"/>
		<path fill="#2E202B" d="M333.526,180.913l-0.584,0.035l-0.137-0.468l-9.194-4.721l-0.439,0.053
			c-0.38,0.138-0.636,0.413-0.883,0.679c-0.186,0.201-0.376,0.407-0.63,0.567l-0.23,0.145l-0.269-0.055
			c-0.184-0.039-0.359-0.079-0.527-0.126l33.183,17.995l0.636-3.438l-20.774-10.69L333.526,180.913z"/>
		<path fill="#2E202B" d="M322.009,191.643c0.148,0.644,0.173,1.38,0.079,2.192l9.631,3.727c0.16-0.247,0.529-0.717,1.34-0.89
			l0.858-0.184l-0.042,0.875c-0.011,0.236,0.034,0.412,0.083,0.595c0.039,0.145,0.083,0.315,0.085,0.505l17.861,6.913l0.535-2.9
			l-30.441-10.96C321.998,191.559,322,191.598,322.009,191.643z"/>
		<path fill="#2E202B" d="M372.404,108.086c-0.529,0-1.009-0.102-1.387-0.219l1.197,2.832c0.125-0.158,0.256-0.316,0.404-0.489
			c0.16-0.188,0.32-0.374,0.485-0.612c0.061-0.164,0.125-0.327,0.202-0.497l-0.47-1.039
			C372.69,108.079,372.547,108.086,372.404,108.086z"/>
		<path fill="#2E202B" d="M378.169,120.373c0.094,0.097,0.177,0.202,0.292,0.354c0.109,0.145,0.198,0.26,0.292,0.341l-1.165-2.39
			c-0.213,0.229-0.444,0.482-0.661,0.784c0.008,0.27,0.147,0.364,0.569,0.531C377.715,120.081,377.962,120.179,378.169,120.373z"/>
		<path fill="#2E202B" d="M340.648,124.95l-0.153-0.036c-0.412,0.098-0.747,0.271-1.126,0.513c-0.041,0.169-0.032,0.294,0.032,0.375
			l22.06,27.812l0.572-3.091l-21.347-25.576L340.648,124.95z"/>
		<path fill="#2E202B" d="M364.597,127.702l-0.09,0.005c-0.356,0.017-0.519,0.211-0.728,0.616c-0.181,0.359-0.333,0.602-0.7,0.7
			c-0.145,0.073-0.265,0.169-0.384,0.289l2.479,4.185l0.613-3.322c-0.243-0.296-0.31-0.676-0.275-1.027L364.597,127.702z"/>
		<path fill="#2E202B" d="M336.964,147.262l-0.905,0.196l0.09-0.918c0.036-0.396,0.113-0.711,0.329-0.96l-1.131-1.002
			c-0.132,0.05-0.256,0.083-0.374,0.102c-0.136,0.02-0.258,0.027-0.371,0.027c-0.624,0-1.022-0.249-1.38-0.471
			c-0.312-0.19-0.562-0.343-0.973-0.364c0,0-0.256,0.478-0.331,0.617l26.52,25.507l0.681-3.695l-21.454-19.606
			C337.525,146.99,337.28,147.195,336.964,147.262z"/>
		<path fill="#2E202B" d="M521.226,116.683c-0.435-0.131-0.774-0.314-1.07-0.481l-0.243-0.062l-14.305,17.242l2.975-0.916
			L521.226,116.683z"/>
		<path fill="#2E202B" d="M497.717,347.93l-0.177,0.299l-0.342,0.03c-0.138,0.013-0.269,0.017-0.392,0.017
			c-0.135,0-0.265-0.006-0.389-0.019l3.229,4.731c0.256,0.137,0.357,0.399,0.439,0.604l0.006,0.015l0.461-0.482
			c0.26-0.286,0.531-0.58,0.868-0.726l-3.281-5.345C498.016,347.368,497.869,347.672,497.717,347.93z M499.424,349.777
			c0.068,0.258,0.023,0.519-0.193,0.841l-0.05,0.07l-0.971,0.363l0.134-0.277l-0.067,0.042l-0.151-0.149
			c-0.158-0.157-0.222-0.354-0.284-0.681l-0.036-0.147l-0.371-1.201l1.207,0.356C499.015,349.104,499.32,349.408,499.424,349.777z"
			/>
		<path fill="#2E202B" d="M496.193,344.004c0.037-0.011,0.075-0.021,0.104-0.032l-0.046-0.068l-0.075,0.083
			c-0.058-0.049-0.113-0.101-0.16-0.159c-0.002-0.021-0.006-0.028-0.009-0.043c0.128-0.358,0.018-0.83-0.243-1.077
			c-0.08-0.054-0.13-0.127-0.153-0.223c-0.506-1.014-1.86-0.258-1.666,0.72h-0.043c0.032,0.176,0.072,0.348,0.113,0.52
			c0.011,0.043,0.042,0.078,0.06,0.12c0.055,0.252,0.218,0.409,0.418,0.495c0.229,0.136,0.499,0.186,0.753,0.119
			c0.066,0.015,0.135,0.021,0.203,0.02c0.083,0.008,0.551-0.087,0.386,0.155c-0.02,0.03,0.025,0.066,0.05,0.039
			c0.068-0.075,0.224-0.188,0.312-0.273c0.106-0.099,0.108-0.29,0-0.391L496.193,344.004z"/>
		<path fill="#2E202B" d="M422.473,102.668l-0.691-13.884c-0.13-0.09-0.238-0.187-0.32-0.279l-0.217-0.248l0.06-0.322
			c0.049-0.265,0.194-0.438,0.378-0.627l-1.219-23.711l-0.719,0.081l0.143-2.294c0.018-0.124,0.004-0.179-0.027-0.214
			c-0.031,0.003-0.055,0.01-0.072,0.013c-0.412,0.089-0.758,0.495-0.745,0.872l1.169,40.783c0.48-0.152,1.004-0.234,1.505-0.234
			C421.98,102.602,422.234,102.625,422.473,102.668z"/>
		<path fill="#2E202B" d="M510.824,333.911c-0.053-0.023-0.103-0.045-0.146-0.066c-0.132-0.063-0.236-0.112-0.393-0.112
			c-0.057,0-0.123,0.009-0.191,0.023c-0.459,0.119-0.733,0.398-0.958,0.697l3.481,4.169c0.069,0.084,0.184,0.129,0.327,0.129
			c0.189,0,0.395-0.082,0.562-0.224c0.335-0.282,0.411-0.709,0.258-0.903L510.824,333.911z"/>
		<path fill="#2E202B" d="M604.025,192.299c-0.075,0-0.111,0.007-0.145,0.015l-80.214,16.749h12.258l67.768-15.52
			c0.407-0.091,0.755-0.501,0.74-0.875C604.426,192.432,604.277,192.299,604.025,192.299z"/>
		<path fill="#2E202B" d="M532.325,330.832c-0.301,0.116-0.567,0.273-0.902,0.493l1.511,1.385c0.063-0.062,0.128-0.121,0.194-0.177
			c0.303-0.275,0.571-0.517,0.62-0.916c-0.479-0.145-0.855-0.407-1.18-0.635L532.325,330.832z"/>
		<path fill="#2E202B" d="M551.522,190.979l0.504,0.303l26.026-8.835c0.403-0.138,0.708-0.565,0.652-0.914
			c-0.034-0.193-0.184-0.308-0.405-0.308c-0.071,0-0.145,0.012-0.229,0.037l-70.396,22.444l-1.22,3.028l44.733-15.218
			L551.522,190.979z"/>
		<path fill="#2E202B" d="M532.314,74.324c-0.025-0.1-0.08-0.173-0.166-0.218c-0.064-0.033-0.141-0.051-0.226-0.051
			c-0.269,0-0.576,0.18-0.751,0.433l-44.062,64.584l3.679-1.132l41.402-63.073C532.312,74.688,532.357,74.487,532.314,74.324z"/>
		<path fill="#2E202B" d="M423.174,122.321c-0.104,0-0.208,0.013-0.32,0.034l-0.44,0.09l-0.252-0.369
			c-0.288-0.423-0.751-0.73-1.374-0.916l0.821,27.857c0.278,0.021,0.532,0.142,0.726,0.348c0.219,0.231,0.331,0.542,0.312,0.857
			c-0.016,0.237-0.144,0.8-0.969,1.041l0.117,3.992l3.514,2.112l-1.783-34.997C423.408,122.34,423.301,122.321,423.174,122.321z"/>
		<path fill="#2E202B" d="M459.865,56.925c-0.09-0.107-0.224-0.13-0.322-0.13c-0.394,0-0.811,0.35-0.888,0.751l-5.133,25.89
			c0.143,0.443,0.038,0.962-0.256,1.293l-2.058,10.233c0.493,0.005,0.898,0.272,1.059,0.699c0.113,0.292,0.099,0.625-0.058,0.97
			l-0.229,0.374h-0.415c-0.275,0-0.508-0.082-0.684-0.232l-2.776,14.185l0.432-0.085l0.18,0.578
			c0.047,0.154,0.068,0.328,0.058,0.512c-0.007,0.113-0.028,0.226-0.062,0.347l-0.376,1.364l-0.631-0.881l-8.104,40.898l3.443-1.061
			l16.895-95.335C459.962,57.189,459.962,57.041,459.865,56.925z"/>
		<path fill="#2E202B" d="M437.861,81.441c-0.408,0.046-0.794,0.427-0.828,0.817l-2.934,34.123c0.391,0.14,0.627,0.433,0.681,0.84
			l0.083,0.656l-0.652,0.098c-0.067,0.011-0.135,0.025-0.207,0.044l-3.257,38.396l2.913-0.896l4.684-73.655
			c0.008-0.125-0.026-0.236-0.097-0.311C438.198,81.501,438.111,81.443,437.861,81.441z"/>
		<path fill="#2E202B" d="M472.009,81.557c-0.032-0.046-0.083-0.122-0.346-0.148c-0.363,0-0.751,0.303-0.866,0.674l-21.265,68.553
			l2.938-0.903l19.576-67.744C472.094,81.82,472.081,81.662,472.009,81.557z"/>
		<path fill="#2E202B" d="M503.527,89.109c-0.036-0.094-0.103-0.159-0.203-0.196c-0.029-0.012-0.087-0.026-0.177-0.026
			c-0.301,0-0.639,0.217-0.8,0.513l-29.687,54.119l2.989-0.92l27.812-52.978C503.557,89.443,503.58,89.251,503.527,89.109z"/>
		<path fill="#2E202B" d="M490.45,79.367l0.196-0.509c0.189-0.491,0.445-0.864,0.762-1.111l1.32-3.271l-0.182,0.075
			c-0.119,0.052-0.236,0.118-0.35,0.197l-0.301,0.187l-0.472,0.787l-0.215,0.083c-0.254,0.098-0.48,0.277-0.745,0.479l-6.602,15.341
			c0.26,0.19,0.418,0.505,0.448,0.904c0.038,0.5-0.139,1.09-0.457,1.503l-0.213,0.277l-0.349-0.013
			c-0.179-0.009-0.337-0.044-0.473-0.107l-12.553,29.279c0.079,0.049,0.162,0.107,0.239,0.175l0.17,0.147l-0.633,1.073l-0.282-0.097
			l-9.657,22.618l3.565-1.097l27.051-66.741L490.45,79.367z"/>
		<path fill="#2E202B" d="M397.1,126.575c-0.25,0.067-0.521,0.099-0.834,0.099c-0.273,0-0.547-0.023-0.86-0.051
			c-0.269-0.023-0.542-0.045-0.821-0.045c-0.079,0-0.16,0.002-0.269,0.02l-0.024,0.025l1.656,5.987
			c0.121-0.113,0.269-0.197,0.414-0.277c0.232-0.136,0.454-0.265,0.533-0.467c0.062-0.42,0.013-0.728-0.036-1.052
			c-0.068-0.435-0.139-0.884,0.196-1.534l0.123-0.122l0.059-0.039c0.177-0.114,0.39-0.197,0.58-0.237L397.1,126.575z"/>
		<path fill="#2E202B" d="M423.89,116.851l-0.032-0.228c-0.15-1.042-1.583-0.984-2.061-0.27c-0.438,0.653-0.615,1.18-0.252,1.908
			c0.115,0.234,0.425,0.408,0.683,0.393c0.011,0,0.02-0.005,0.02-0.005c0.081,0.068,0.153,0.107,0.239,0.107
			c0.074,0,0.168-0.02,0.271-0.054c0.256-0.083,0.401-0.281,0.519-0.49l-0.002-0.021c0.045-0.046,0.088-0.094,0.13-0.146
			C423.815,117.785,423.963,117.348,423.89,116.851z"/>
		<path fill="#2E202B" d="M533.054,124.938l5.093-5.25l0.061-0.931l0.869-0.101l2.358-2.445c-0.003-0.01-0.18-0.422-0.18-0.422
			l0.284-0.322c0.232-0.261,0.559-0.399,0.901-0.399c0.015,0,0.032,0,0.047,0.002l0.031,0.021l2.448-2.541
			c-0.051-0.07-0.117-0.128-0.208-0.189c-0.144-0.123-0.48-0.197-0.776-0.265c-0.152-0.034-0.301-0.07-0.485-0.088l-7.423,7.364
			l1.615,0.399l-2.002,0.772c-0.264,0.101-0.525,0.216-0.795,0.364l-0.092,0.045l-0.122-0.019l-0.141,0.047l-0.038,0.002
			l-5.085,5.074L533.054,124.938z"/>
		<path fill="#2E202B" d="M550.259,107.106l10.958-11.321c0.171-0.175,0.265-0.39,0.261-0.589c-0.004-0.121-0.039-0.213-0.104-0.275
			c-0.072-0.066-0.178-0.1-0.303-0.1c-0.22,0-0.445,0.104-0.625,0.284l-11.206,11.133
			C549.657,106.438,549.994,106.724,550.259,107.106z"/>
		<path fill="#2E202B" d="M354.991,116.229l-0.021,0.056l0.517,0.876c0.034-0.157,0.07-0.33,0.113-0.539
			c0.141-0.683,0.286-1.388,0.604-1.995l0.104-0.147l-1.643-2.466c-0.484,0.7-0.286,1.216-0.023,1.904
			C354.87,114.515,355.153,115.256,354.991,116.229z"/>
		<path fill="#2E202B" d="M422.93,112.69c-0.207-0.825-0.209-0.892-0.084-1.884c0.187-1.477,0.188-2.956,0.031-4.43
			c-0.033-0.303-0.138-0.534-0.279-0.715l-0.031-0.361c-0.06,0.055-0.112,0.11-0.168,0.166c-0.801-0.61-2.268-0.058-1.969,1.129
			c0.065,1.269,0.234,2.499,0.533,3.737c0.295,1.219,0.096,2.486,0.52,3.625c0.233,0.623,1.253,0.773,1.418,0
			C423.02,113.389,423.058,113.208,422.93,112.69z"/>
		<path fill="#2E202B" d="M556.783,140.8c0.218,0.376,0.171,0.829-0.068,1.625l20.662-14.644c-0.076-0.172-0.176-0.307-0.262-0.394
			c-0.106-0.035-0.192-0.048-0.276-0.048c-0.279,0-0.491,0.173-0.72,0.363c-0.171,0.142-0.343,0.288-0.68,0.404l-0.191-0.005
			l-0.076-0.017c-0.036-0.009-0.078-0.018-0.226-0.019l-18.372,12.488C556.657,140.623,556.729,140.705,556.783,140.8z"/>
		<path fill="#2E202B" d="M360.285,123.563c0.162-0.275,0.35-0.586,0.586-0.837l0.109-0.116c0,0,0.231-0.087,0.346-0.126
			l-2.44-3.738c-0.254,0.237-0.54,0.457-0.854,0.655l-0.342,0.212l-0.348-0.195c-0.372-0.207-0.672-0.477-0.979-0.766l3.365,5.714
			C359.938,124.137,360.102,123.866,360.285,123.563z"/>
		<path fill="#2E202B" d="M528.334,162.496c-0.225-0.173-0.394-0.372-0.508-0.599l-0.184-0.355l0.222-0.331
			c0.349-0.519,1.015-0.519,1.265-0.519c0.247,0,0.511,0.022,0.769,0.049l0.744-0.015l-0.011,0.131l10.528-7.481
			c-0.161-0.531-0.247-1.032-0.18-1.641c0.011-0.192-0.021-0.349-0.103-0.478l-16.67,11.347l-1.577,3.921L528.334,162.496z"/>
		<path fill="#2E202B" d="M525.297,110.819l0.437,0.168l5.284-6.602c0.143-0.181,0.213-0.39,0.188-0.571
			c-0.017-0.111-0.062-0.19-0.141-0.246c-0.066-0.049-0.158-0.074-0.261-0.074c-0.251,0-0.509,0.133-0.698,0.356l-5.954,7.119
			c0.326,0.035,0.669,0.066,1.022,0.096L525.297,110.819z"/>
		<path fill="#2E202B" d="M534.883,139.99c0.19-0.104,0.396-0.222,0.59-0.382l0.376-0.312l0.411,0.259
			c0.154,0.095,0.322,0.156,0.508,0.185l2.95-2.505c-0.667-0.045-1.256-0.085-1.723-0.342l-5.166,4.279l-1.203,2.99l2.172-1.863
			c-0.058-0.066-0.106-0.131-0.147-0.195l-0.137-0.222l0.049-0.258C533.752,140.632,534.346,140.298,534.883,139.99z"/>
		<path fill="#2E202B" d="M319.912,132.844l1.732-0.821l-0.947,1.673l4.368,4.21c0.043-0.023,0.081-0.052,0.109-0.083
			c0.286-0.284,0.239-0.452,0.151-0.759l-0.174-0.714l0.473-0.242c0.088-0.045,0.201-0.094,0.263-0.118
			c0.025-0.009,0.049-0.02,0.077-0.032l-14.699-13.442c-0.092-0.083-0.214-0.1-0.301-0.1c-0.22,0-0.449,0.105-0.63,0.29
			c-0.173,0.173-0.269,0.388-0.267,0.592c0.002,0.118,0.036,0.211,0.103,0.276L319.912,132.844z"/>
		<path fill="#2E202B" d="M554.554,142.414c0.056-0.194,0.111-0.393,0.168-0.586l-3.959,2.684c0.855-0.048,1.83-0.418,2.863-0.809
			c0.22-0.081,0.431-0.16,0.565-0.167C554.334,143.2,554.441,142.808,554.554,142.414z"/>
		<path fill="#2E202B" d="M560.729,156.446c0.319-0.301,0.65-0.613,1.196-0.613c0.096,0,0.196,0.008,0.239,0.024l0.303-0.011
			l0.029,0.038l6.77-3.892c0.362-0.207,0.574-0.653,0.451-0.935c-0.074-0.171-0.245-0.207-0.375-0.207s-0.265,0.038-0.394,0.107
			l-10.085,5.593c0.198,0.194,0.408,0.328,0.638,0.419c0.075,0.018,0.151,0.025,0.226,0.025
			C560.139,156.995,560.424,156.729,560.729,156.446z"/>
		<path fill="#2E202B" d="M516.231,182.431l21.586-12.423c-0.069-0.062-0.188-0.131-0.388-0.228
			c-0.174-0.083-0.357-0.175-0.512-0.301l-0.34-0.282c0,0,0.13-0.449,0.133-0.462l-6.201,3.439c0.226,0.431,0.186,0.984,0.153,1.41
			l-0.038,0.56l-0.559,0.063c-0.068,0.007-0.144,0.013-0.221,0.013c-0.631,0-1.225-0.312-1.54-0.583l-0.194-0.165l-10.634,5.863
			L516.231,182.431z"/>
		<path fill="#2E202B" d="M542.609,167.265c0.07-0.32,0.186-0.557,0.314-0.741h-0.032c-0.241,0-0.843,0.035-1.203,0.371
			c-0.147,0.136-0.231,0.306-0.246,0.52c-0.019,0.156,0.021,0.225,0.261,0.415L542.609,167.265z"/>
		<path fill="#2E202B" d="M313.686,173.248c0.053-0.982,0.132-1.812,0.237-2.475l-29.706-15.265
			c-0.062-0.032-0.134-0.047-0.22-0.047c-0.272,0-0.582,0.181-0.755,0.44c-0.124,0.185-0.172,0.385-0.132,0.551
			c0.026,0.097,0.079,0.169,0.167,0.215L313.686,173.248z"/>
		<path fill="#2E202B" d="M313.566,151.421c-0.149,0.18-0.219,0.39-0.196,0.575c0.013,0.108,0.059,0.192,0.134,0.248l2.453,1.792
			l0.717-1.42l-2.151-1.49c-0.064-0.045-0.155-0.071-0.258-0.071C314.016,151.055,313.75,151.196,313.566,151.421z"/>
		<path fill="#2E202B" d="M317.369,175.141c-0.083,0-0.161-0.007-0.23-0.014l1.383,0.75c-0.214-0.237-0.38-0.501-0.502-0.799
			C317.786,175.112,317.562,175.141,317.369,175.141z"/>
		<path fill="#2E202B" d="M315.766,174.382l0.689,0.376l0.013-0.341c0.009-0.146,0.039-0.35,0.082-0.597
			c0.083-0.47,0.072-0.64,0.076-0.661h-0.09C316.101,173.531,315.836,173.952,315.766,174.382z"/>
		<path fill="#2E202B" d="M316.244,154.243l1.698,1.24l-0.011-0.178l0.014-0.079c0.089-0.512,0.383-0.937,0.798-1.183l-1.084-0.757
			L316.244,154.243z"/>
		<path fill="#2E202B" d="M320.74,337.865l0.416,0.191l0.02,0.414c0.013,0.327,0.102,0.641,0.218,1.044
			c0.015,0.056,0.029,0.108,0.047,0.16l4.869-4.863l-0.149-0.149c-0.167-0.164-0.252-0.379-0.245-0.644
			c0.023-0.57,0.526-1.193,0.823-1.471l0.303-0.286l0.391,0.144c0.269,0.096,0.533,0.335,0.555,0.733l0.405-0.405l0.536-2.897h-0.41
			L320.74,337.865z"/>
		<path fill="#2E202B" d="M322.045,156.699l0.06-0.326l-1.73-1.2c-0.092,0.165-0.201,0.308-0.293,0.428
			c-0.243,0.315-0.471,0.614-0.433,1.125l2.115,1.545C321.915,157.791,321.979,157.247,322.045,156.699z"/>
		<path fill="#2E202B" d="M313.916,345.354c-0.103-0.032-0.199-0.061-0.32-0.073l-7.622,7.895c-0.153,0.63-0.324,1.181-0.518,1.678
			c0.068,0.209,0.101,0.429,0.101,0.666l9.138-9.18c0.041-0.173,0.084-0.35,0.126-0.524
			C314.69,345.595,314.3,345.477,313.916,345.354z"/>
		<path fill="#2E202B" d="M312.649,188.747c0.238-0.108,0.469-0.211,0.68-0.352l-19.203-6.915c-0.053-0.02-0.113-0.029-0.174-0.029
			c-0.306,0-0.643,0.22-0.805,0.522c-0.099,0.181-0.12,0.368-0.066,0.515c0.034,0.094,0.098,0.16,0.194,0.196l17.718,6.856
			l0.871-0.379C312.105,188.984,312.392,188.857,312.649,188.747z"/>
		<polygon fill="#2E202B" points="310.225,330.632 311.189,329.836 309.969,329.836 		"/>
		<path fill="#2E202B" d="M305.599,202.953c0.341-0.292,0.67-0.567,0.747-1.12l-42.153-9.533c-0.336,0-0.698,0.257-0.84,0.6
			c-0.073,0.175-0.078,0.348-0.016,0.472c0.047,0.092,0.122,0.149,0.233,0.176l41.289,10.344
			C304.999,203.464,305.305,203.206,305.599,202.953z"/>
		<path fill="#2E202B" d="M305.859,334.244l2.852-2.404c0.028-0.252,0.161-0.511,0.354-0.87l0.617-1.134h-0.452l-9.382,8.053
			c-0.331,0.284-0.405,0.71-0.248,0.902c0.071,0.087,0.18,0.132,0.325,0.132c0.188,0,0.384-0.076,0.555-0.222l5.33-4.429
			L305.859,334.244z"/>
		<path fill="#2E202B" d="M269.68,339.918c-0.337,0.236-0.503,0.678-0.352,0.928c0.081,0.137,0.237,0.165,0.352,0.165
			c0.159,0,0.325-0.056,0.479-0.161l16.161-11.014h-2.373L269.68,339.918z"/>
		<g>
			<path fill="#2E202B" d="M362.418,124.961c-0.162-0.084-0.322-0.131-0.482-0.155c0.002-0.061,0.027-0.12,0.085-0.174
				c0.036-0.032-0.011-0.094-0.051-0.066c-0.19,0.135-0.414,0.201-0.608,0.309c-0.058,0.022-0.117,0.041-0.177,0.075
				c-0.454,0.266-0.671,0.936-0.365,1.395c0.075,0.111,0.163,0.211,0.259,0.301c0.328,0.493,1.081,0.621,1.506,0.167
				c0.108-0.118,0.201-0.235,0.262-0.382c0.013-0.029,0.047-0.158,0.073-0.254C363.022,125.727,362.845,125.183,362.418,124.961z"/>
			<path fill="#2E202B" d="M362.92,126.174c0,0.005,0,0.011,0,0.011C362.967,125.993,362.952,126.061,362.92,126.174z"/>
		</g>
		<path fill="#2E202B" d="M327.435,158.805c-0.438-0.402-1.131-0.798-1.686-0.6c-0.034-0.021-0.073-0.042-0.103-0.064
			c-0.966-0.698-1.983,0.782-1.229,1.594c0.836,0.898,1.765,0.927,2.838,0.465C327.776,159.976,327.819,159.157,327.435,158.805z"/>
		<path fill="#2E202B" d="M328.57,138.896c-0.559,0.093-0.964,0.64-0.964,1.199c0,0.572,0.401,0.941,0.892,1.148
			c0.328,0.139,0.73-0.04,0.973-0.257c0.013-0.013,0.025-0.027,0.04-0.038c0.073-0.065,0.113-0.145,0.154-0.221
			c0.032-0.013,0.062-0.017,0.1-0.042c0.09-0.061,0.175-0.169,0.165-0.288c-0.007-0.056-0.013-0.112-0.021-0.167
			C330.183,139.371,329.33,138.77,328.57,138.896z"/>
		<path fill="#2E202B" d="M319.037,190.181c-0.23-0.179-0.397-0.269-0.617-0.32c-0.194-0.175-0.388-0.355-0.625-0.459
			c-0.346-0.148-0.766-0.152-1.135-0.181c-1.204-0.093-1.278,1.624-0.27,1.989c0.463,0.167,0.886,0.315,1.379,0.188
			c0.339-0.087,0.623-0.035,0.977-0.122C319.187,191.168,319.434,190.487,319.037,190.181z"/>
		<path fill="#2E202B" d="M321.514,206.956c-0.962-2.099-2.909-1.596-4.643-1.926c-1.15-0.219-2.025-0.848-3.143-1.179
			c-1.066-0.313-1.726,0.092-2.801,0.199c-0.021,0.002-0.043,0.026-0.026,0.047c0.905,1.271,1.4,2.099,3.128,2.146
			c1.223,0.031,2.499-0.313,3.625,0.357c0.256,0.152,0.453,0.482,0.732,0.64c0.502,0.284,1.169,0.272,1.626,0.657
			c0.143,0.218,0.369,0.377,0.643,0.367c0.039-0.002,0.075-0.004,0.111-0.005C321.465,208.229,321.789,207.556,321.514,206.956z"/>
		<path fill="#2E202B" d="M336.104,210.458c-0.495-0.71-1.095-0.825-1.848-0.754c-0.531-0.19-1.047-0.327-1.602-0.529
			c-0.963-0.352-2.181-0.156-3.104-0.568c-0.357-0.157-0.753-0.101-0.971,0.254c-0.025,0.042-0.049,0.082-0.075,0.123
			c-0.158,0.26-0.158,0.618,0,0.878c0.467,0.759,1.34,1.009,2.198,0.87c0.156-0.025,2.545-0.737,2.37-0.215
			c-0.187,0.567,0.222,1.199,0.771,1.355c0.817,0.232,1.539,0.274,2.131-0.396C336.204,211.213,336.324,210.773,336.104,210.458z"/>
		<path fill="#2E202B" d="M376.102,113.961c-0.158-0.129-0.265-0.258-0.386-0.376c-0.149-0.333-0.275-0.522-0.565-0.795
			c-0.482-0.452-1.446-0.164-1.393,0.577c0.029,0.465,0.174,0.934,0.416,1.341c0.015,0.034,0.018,0.066,0.034,0.1
			c0.156,0.315,0.395,0.535,0.703,0.698l0.017-0.028c0.384,0.204,0.828,0.214,1.175-0.126
			C376.454,115.009,376.509,114.299,376.102,113.961z"/>
		<path fill="#2E202B" d="M523.774,112.97c-0.086-0.084-0.203-0.151-0.327-0.199c-0.13-0.435-0.728-0.723-1.112-0.312
			c-0.188,0.203-0.352,0.432-0.447,0.682c-0.049,0.097-0.095,0.199-0.133,0.306c-0.054,0.146-0.004,0.281,0.081,0.39l0.003,0.018
			c0.128,0.485,0.407,0.947,0.922,1.09C524.004,115.292,524.605,113.791,523.774,112.97z"/>
		<path fill="#2E202B" d="M548.488,146.575c-0.041,0.051-0.082,0.1-0.125,0.15c-0.021-0.06-0.051-0.114-0.065-0.176
			c-0.079-0.193-0.232-0.288-0.44-0.252c-0.656,0.116-1.29,0.725-1.836,1.095c-0.632,0.428-1.361,0.888-1.843,1.487
			c-0.508,0.625,0.016,1.281,0.56,1.336l-0.004,0.01c0.014-0.001,0.025-0.007,0.039-0.008c0.098,0.006,0.189-0.013,0.279-0.051
			c0.873-0.147,1.686-0.661,2.26-1.319c0.259-0.299,0.539-0.667,0.735-1.062c0.137,0.096,0.325,0.127,0.462,0.036
			c0.247-0.163,0.488-0.328,0.744-0.479C549.994,146.905,549.072,145.805,548.488,146.575z"/>
		<path fill="#2E202B" d="M553.34,160.595c-1.203,0.653-2.548,0.986-3.828,1.455c-0.441,0.161-0.895,0.304-1.269,0.592
			c-0.229,0.177-0.543,0.478-0.715,0.697c0,0-0.079,0.127-0.129,0.219c0,0-0.004-0.009-0.006-0.005
			c-0.062,0.056-0.119,0.111-0.183,0.168c-0.272,0.154-0.227,0.62,0.092,0.692c2.771,0.612,4.539-1.744,6.319-3.453
			C553.815,160.773,553.57,160.471,553.34,160.595z"/>
		<path fill="#2E202B" d="M556.903,159.475c-0.036-0.288-0.196-0.644-0.529-0.698c-0.034-0.004-0.068-0.01-0.103-0.015
			c-0.409-0.065-0.771,0.047-1.003,0.408c-0.179,0.279-0.348,1.033-0.663,1.163c-0.02,0.008-0.021,0.045,0.006,0.042
			c0.29-0.031,0.615,0.177,0.914,0.199c0.358,0.028,0.627-0.045,0.957-0.191c0.25-0.11,0.475-0.493,0.439-0.767
			C556.916,159.57,556.91,159.521,556.903,159.475z"/>
		<path fill="#2E202B" d="M515.805,340.12c0.006-0.002,0.013-0.002,0.021-0.006c-0.028,0.004-0.056,0.009-0.084,0.013
			c-0.032,0.004-0.065,0.007-0.098,0.013c-0.243,0.034-0.457,0.049-0.229-0.297c0.025-0.04-0.034-0.09-0.066-0.051
			c-0.164,0.198-0.209,0.448-0.384,0.638c-0.232,0.248-0.312,0.578-0.263,0.895c-0.055,0.522,0.418,1.002,0.9,1.188
			c0.79,0.306,1.451-0.458,1.516-1.151c0.004-0.047,0.008-0.09,0.013-0.135C517.204,340.424,516.47,340.059,515.805,340.12z"/>
		<path fill="#2E202B" d="M529.461,327.166c-1.405,0-1.409,2.188,0,2.188C530.868,329.354,530.871,327.166,529.461,327.166z"/>
		<path fill="#2E202B" d="M319.259,340.494c-0.551-0.655-1.165-0.018-1.682,0.443c-0.111,0.02-0.222,0.03-0.328,0.077
			c-0.372,0.162-0.624,0.439-0.828,0.78c0.013,0.007,0.03,0.014,0.045,0.02c-0.406,0.764,0.156,1.938,1.184,1.581
			c0.313-0.106,0.546-0.265,0.757-0.456c0.13-0.09,0.241-0.209,0.327-0.349c0.013-0.02,0.027-0.027,0.042-0.047l-0.017-0.002
			c0.113-0.205,0.17-0.438,0.158-0.661c0.03-0.036,0.064-0.075,0.094-0.107c0.043-0.051,0.213-0.29,0.303-0.413
			c0.011-0.013,0.025-0.023,0.034-0.036c0,0,0.009-0.018,0.015-0.025C319.532,341.032,319.446,340.716,319.259,340.494z"/>
	</g>
	<path fill="#2E202B" d="M540.922,372.388c-8.998-4.174-18.283-8.386-28.639-10.796c-0.533-0.166-1.066-0.329-1.602-0.488
		c-2.672-0.807-5.35-1.582-8.035-2.324c-0.538-0.149-1.073-0.297-1.611-0.441c-11.083-1.449-21.9-5.452-32.541-7.208
		c-0.546-0.094-1.093-0.186-1.639-0.279c-5.354-0.897-10.722-1.673-16.103-2.323c-0.54-0.066-1.079-0.131-1.628-0.192
		c-6.49-2.116-14.603,0.551-22.668-1.907c-0.523-0.028-1.061-0.054-1.604-0.079c-4.953-0.235-9.912-0.367-14.873-0.395
		c-0.498-0.002-0.996-0.005-1.504-0.007c-9.981,0.258-21.521,0.269-31.946,1.705c-0.499,0.07-0.995,0.141-1.489,0.215
		c-8.117,2.353-17.58,1.019-25.961,3.038c-0.506,0.075-1.013,0.152-1.519,0.229c-0.474,0.07-0.95,0.143-1.423,0.22
		c-0.483,0.076-0.965,0.153-1.473,0.241c-4.78-0.041-8.836,2.626-14.031,2.756c-0.453,0.101-0.914,0.209-1.374,0.323
		c-1.39,0.339-2.77,0.694-4.144,1.072c-0.538,0.131-1.08,0.261-1.622,0.393c-6.593,3.416-13.352,3.416-19.877,5.488
		c-0.508,0.155-1.014,0.313-1.52,0.472c-1.517,0.474-3.032,0.958-4.544,1.453c-0.512,0.166-1.024,0.331-1.562,0.499
		c-11.537,3.506-22.353,8.842-34.519,12.843c2.433,3.601,7.056,1.801,10.386,3.484c0.372,0.188,0.73,0.418,1.078,0.701
		c4.758,3.817,22.333,3.817,18.445,14.388c-0.145,0.48-0.29,0.96-0.435,1.44c-0.146,0.48-0.286,0.96-0.429,1.442
		c-0.141,0.478-0.282,0.96-0.42,1.44c-1.587,6.447-2.938,14.451-5.445,21.602c-0.105,0.477-0.205,0.958-0.307,1.436
		c0.258-0.115,0.516-0.23,0.772-0.345c0.258-0.114,0.516-0.228,0.774-0.34c5.324-2.567,10.731-6.569,17.217-6.956
		c0.503-0.194,1.031-0.387,1.555-0.576c1.833-0.664,3.668-1.31,5.507-1.937c0.277-0.1,0.547-0.191,0.826-0.286
		c9.959-3.483,19.425-7.482,28.713-8.141c0.537-0.124,1.075-0.247,1.613-0.367c2.716-0.612,5.438-1.186,8.167-1.722
		c0.547-0.108,1.091-0.213,1.637-0.318c9.036-2.272,18.501-3.605,28.013-4c0.552-0.054,1.105-0.104,1.656-0.153
		c3.313-0.297,6.631-0.54,9.949-0.73c0.555-0.032,1.107-0.062,1.671-0.089c9.657-1.301,17.769-1.301,26.585-0.206
		c0.541,0.021,1.094,0.043,1.646,0.066c0.027,0.002,0.055,0.005,0.08,0.005c0.01-0.073,0.541-0.293,0.562-0.267
		c0.083,0.099,0.156,0.202,0.227,0.31c2.4,0.106,4.799,0.232,7.197,0.396c0.541,0.038,1.086,0.081,1.643,0.126
		c8.134,0.795,16.192,0.915,24.46,2.518c0.486,0.094,0.978,0.193,1.475,0.297c6.618,3.456,13.38,0.789,20.11,4.16
		c0.478,0.107,0.987,0.226,1.504,0.348c2.392,0.568,4.777,1.167,7.159,1.792c-0.458-0.429-0.822-0.99-1.254-1.455
		c0.771,0.039,1.541,0.095,2.312,0.106c0.956,0.015,1.918-0.072,2.863,0.011c0.8,0.068,2.13,0.157,2.262,0.518
		c0.303,0.814-0.834,1.766-2.278,1.931c12.055,3.642,24.618,7.009,35.631,12.467c0.468,0.231,0.931,0.465,1.386,0.701
		c3.169-1.115,1.817,2.885,5.055,3.062c0.272,0.119,0.544,0.225,0.827,0.319c-0.008-3.163-2.713-7.164-3.05-10.364
		c-0.125-0.417-0.221-0.848-0.282-1.298c-0.119-0.479-0.243-0.958-0.365-1.438c-0.244-0.957-0.497-1.918-0.752-2.875
		c-0.127-0.481-0.257-0.965-0.387-1.454c0.275-2.051-0.929-4.049-2.228-6.05c-0.259-0.401-0.523-0.803-0.781-1.204
		c-2.979-5.155-1.626-9.158,3.497-11.424c0.458-0.241,0.915-0.484,1.374-0.728c3.719-1.97,7.503-3.877,11.347-5.723
		c0.429-0.205,0.859-0.409,1.293-0.612c2.494-2.674,7.9-1.342,10.604-4.009c-2.704-1.334-6.759-1.334-9.8-3.85
		C541.869,372.828,541.396,372.607,540.922,372.388z M283.707,383.633c-0.373-0.021-0.738-0.188-1.606-0.444
		c1.218-0.508,1.526-0.638,1.833-0.769c0.108,0.27,0.299,0.538,0.292,0.805C284.222,383.372,283.88,383.644,283.707,383.633z
		 M310.363,409.122c-0.766,0.207-1.547,0.368-2.323,0.55c0.023-0.214-0.028-0.571,0.079-0.613c0.868-0.337,1.758-0.634,2.663-0.882
		c0.118-0.032,0.353,0.266,0.641,0.501C311.036,408.842,310.715,409.025,310.363,409.122z M315.911,395.959
		c-0.09-0.213-0.331-0.519-0.25-0.626c0.439-0.563,0.956-1.079,1.48-1.587c0.011-0.011,0.435,0.316,0.964,0.699
		C317.228,395.052,316.568,395.504,315.911,395.959z M318.153,376.902c-0.265,0.446-0.845,0.743-1.285,1.102
		c0.079-0.522,0.047-1.088,0.265-1.562c0.299-0.649,0.787-1.231,1.195-1.844c0.092,0.192,0.288,0.396,0.261,0.575
		C318.5,375.761,318.452,376.397,318.153,376.902z M334.023,358.463c-0.866-0.476-1.372-0.755-1.877-1.032
		c0.993-0.307,1.974-0.653,2.99-0.883c0.217-0.05,0.557,0.319,0.841,0.494C335.33,357.512,334.685,357.981,334.023,358.463z
		 M350.912,368.917c0.13-0.428,0.47-0.803,0.73-1.2c0.281,0.198,0.778,0.379,0.8,0.596c0.039,0.385-0.213,0.792-0.42,1.435
		C351.423,369.312,350.874,369.044,350.912,368.917z M351.663,401.417c-0.243-0.565-0.531-0.905-0.458-1.163
		c0.07-0.257,0.48-0.531,0.798-0.607c0.29-0.073,0.659,0.107,0.994,0.181C352.702,400.177,352.407,400.527,351.663,401.417z
		 M366.422,384.746c-0.415-0.023-0.809-0.315-1.21-0.495c0.277-0.234,0.518-0.58,0.847-0.666c0.277-0.072,0.657,0.156,1.169,0.304
		C366.874,384.283,366.631,384.757,366.422,384.746z M370.621,362.228c-0.203-1.434,0.503-2.076,1.513-1.79
		c1.197,0.177,1.722,0.254,2.249,0.33c-0.952,0.841-1.906,1.678-2.857,2.519C371.209,362.934,370.674,362.607,370.621,362.228z
		 M372.938,373.995c-0.333-0.48-0.632-0.986-0.837-1.516c-0.025-0.066,0.538-0.312,0.828-0.473c0.281,0.498,0.561,1,0.934,1.666
		C373.454,373.817,372.963,374.035,372.938,373.995z M375.639,394.092c-0.437-0.576-0.904-1.14-1.276-1.749
		c-0.038-0.064,0.615-0.626,0.728-0.574c0.617,0.279,1.167,0.676,2.025,1.212C376.392,393.526,376.016,393.811,375.639,394.092z
		 M387.737,354.384c-0.58-0.41-1.116-0.87-1.666-1.316c0.175-0.134,0.35-0.271,0.644-0.497c0.533,0.508,1.071,1.021,1.609,1.532
		C388.121,354.205,387.805,354.432,387.737,354.384z M391.949,380.511c-0.333-0.184-0.555-0.527-0.826-0.796
		c0.425-0.265,0.849-0.529,1.632-1.016c0.687,0.632,1.323,1.167,1.848,1.775c0.059,0.068-0.581,0.845-0.767,0.807
		C393.174,381.145,392.538,380.835,391.949,380.511z M395.665,395.718c-0.528-0.333-1.074-0.651-1.569-1.021
		c-0.064-0.047,0.13-0.364,0.67-1.766c0.537,1.122,0.832,1.679,1.061,2.255C395.881,395.329,395.726,395.538,395.665,395.718z
		 M416.301,378.935c-0.07,0.013-0.331-0.484-0.304-0.502c0.293-0.186,0.626-0.324,0.948-0.476c0.09,0.18,0.181,0.362,0.328,0.659
		C416.947,378.733,416.634,378.885,416.301,378.935z M428.975,351.893c-0.299,0.021-0.621-0.239-0.933-0.374
		c0.277-0.378,0.495-0.817,0.862-1.101c0.127-0.101,0.627,0.179,0.955,0.285c0.244,0.275,0.487,0.553,0.73,0.826
		C430.052,351.659,429.519,351.857,428.975,351.893z M431.831,396.876c-0.241,0.041-0.589-0.443-0.887-0.687
		c0.823-0.367,1.632-0.771,2.485-1.069c0.141-0.051,0.479,0.348,1.223,0.918C433.408,396.428,432.641,396.746,431.831,396.876z
		 M438.648,365.556c-0.079-0.209-0.239-0.427-0.215-0.627c0.023-0.205,0.226-0.393,0.348-0.589c0.132,0.16,0.263,0.32,0.476,0.576
		C439.066,365.114,438.857,365.336,438.648,365.556z M456.533,358.244c-0.225-0.182-0.446-0.365-0.67-0.549
		c0.194-0.137,0.388-0.277,0.582-0.414c0.169,0.151,0.457,0.292,0.472,0.453C456.935,357.894,456.672,358.073,456.533,358.244z
		 M476.284,403.156c-0.087,0.062-0.418-0.154-0.636-0.242c0.569-0.577,1.14-1.159,1.642-1.665c0.505,0.216,0.723,0.312,0.942,0.406
		C477.59,402.162,476.961,402.686,476.284,403.156z M481.313,385.755c-0.23-0.04-0.478-0.179-0.627-0.343
		c-0.074-0.081,0.049-0.31,0.106-0.58c0.363,0.232,0.653,0.418,0.945,0.604C481.593,385.551,481.427,385.774,481.313,385.755z
		 M487.232,372.821c-0.783-0.565-1.34-0.941-1.323-0.963c0.728-0.942,1.506-1.854,2.279-2.77c0.305,0.218,0.91,0.56,0.872,0.635
		C488.542,370.715,487.935,371.667,487.232,372.821z M492.891,361.125c-0.101,0.027-0.631-0.57-0.559-0.696
		c0.218-0.378,0.634-0.666,0.973-0.987c0.234,0.251,0.468,0.505,0.902,0.972C493.687,360.715,493.317,360.996,492.891,361.125z
		 M500.655,379.805c-0.151,0.041-0.401-0.198-0.608-0.312c0.211-0.232,0.421-0.468,0.722-0.802c0.352,0.258,0.591,0.43,0.83,0.605
		C501.287,379.474,500.997,379.708,500.655,379.805z M514.014,388.285c-0.145,0.316-0.386,0.596-0.587,0.893
		c-0.165-0.313-0.354-0.621-0.492-0.945c-0.099-0.23-0.245-0.512-0.177-0.721c0.141-0.441,0.409-0.852,0.625-1.273
		c0.317,0.398,0.634,0.798,0.76,0.957C514.081,387.795,514.114,388.066,514.014,388.285z M517.951,373.207
		c-0.218,0.015-0.686-0.413-0.655-0.598c0.04-0.26,0.396-0.575,0.697-0.67c0.162-0.051,0.489,0.308,0.858,0.563
		C518.465,372.828,518.224,373.19,517.951,373.207z"/>
</g>
<g>
	<path fill="#A59431" d="M352.071,246.366h-10.19v11.424h3.453l-1.782,9.14h5.735l2.785-9.454V246.366z M342.667,256.842
		c-0.059-0.224-0.174-0.459-0.155-0.678c0.016-0.219,0.162-0.425,0.251-0.636c0.096,0.173,0.192,0.344,0.347,0.625
		C342.972,256.366,342.819,256.604,342.667,256.842z"/>
	<path fill="#A59431" d="M514.244,236.873c-4.01-4.964-9.578-7.446-16.707-7.446c-7.238,0-13.752,2.975-19.543,8.923
		c-5.791,5.95-10.287,13.493-13.488,22.632c-3.203,9.14-4.803,18.161-4.803,27.062c0,8.981,1.988,15.954,5.971,20.918
		c3.98,4.965,9.535,7.447,16.664,7.447c7.236,0,13.752-2.975,19.543-8.925c5.791-5.948,10.303-13.473,13.531-22.572
		c3.229-9.101,4.844-18.1,4.844-27.004C520.256,248.85,518.252,241.837,514.244,236.873z M464.322,283.81
		c-0.166-0.684-0.382-1.357-0.462-2.058c-0.024-0.187,0.363-0.459,0.79-0.962c0.16,1.037,0.32,1.745,0.346,2.463
		C465.001,283.424,464.557,283.622,464.322,283.81z M466.572,271.731c-0.471-0.874-0.945-1.352-0.926-1.793
		c0.09-1.865,1.82-0.507,2.242-1.846c0.228,0.128,0.452,0.256,0.68,0.385C467.97,269.449,467.377,270.422,466.572,271.731z
		 M469.242,305.951c-0.457-0.612-0.832-1.334-1.235-2.016c0.332-0.141,0.829-0.537,0.968-0.379c0.473,0.529,0.82,1.251,1.357,2.139
		C469.736,305.85,469.344,306.09,469.242,305.951z M472.902,307.902c-0.16-0.113-0.318-0.225-0.479-0.338
		c0.125-0.268,0.248-0.534,0.377-0.801c0.115,0.176,0.229,0.352,0.348,0.528C473.064,307.496,472.982,307.699,472.902,307.902z
		 M488.924,315.141c-0.176-0.232-0.473-0.441-0.502-0.697c-0.031-0.305,0.169-0.649,0.34-1.214c0.238,0.471,0.479,0.741,0.489,1.024
		C489.262,314.543,489.042,314.844,488.924,315.141z M504.971,275.04c-0.259,0.372-0.445,0.641-0.637,0.908
		c-0.049-0.073-0.098-0.145-0.147-0.218c-0.454,2.704-0.991,5.392-1.636,8.062c-2.172,8.98-5.014,16.308-8.52,21.981
		c-3.51,5.673-7.156,8.508-10.941,8.508c-2.674,0-4.846-2.204-6.518-6.617c-1.67-4.411-2.504-10.438-2.504-18.081
		c0-9.376,1.088-18.555,3.258-27.537c2.172-8.982,5.012-16.309,8.518-21.981c3.51-5.673,7.156-8.509,10.943-8.509
		c2.672,0,4.844,2.206,6.516,6.619c1.67,4.413,2.506,10.44,2.506,18.081c0,6.141-0.476,12.194-1.407,18.165
		C504.572,274.529,504.748,274.809,504.971,275.04z M506.36,244.893c-0.302-0.652-0.556-1.341-0.819-2.023
		c0.16-0.083,0.317-0.166,0.616-0.323c0.292,0.612,0.593,1.256,0.896,1.897C506.812,244.602,506.371,244.918,506.36,244.893z
		 M511.395,285.752c-0.217,1.373-0.817,1.639-1.785,1.371c-1.333-0.374-1.57-0.933-0.833-2.384c0.676-1.326,1.354-2.653,2.105-3.901
		c0.248-0.412,0.732-0.578,1.108-0.853c0.102,0.475,0.206,0.951,0.24,1.111C511.907,282.89,511.622,284.312,511.395,285.752z"/>
	<path fill="#A59431" d="M439.908,231.2l-6.18,0.118c-1.338,0.079-3.344,0.118-6.014,0.118c-6.016,0-10.441-0.118-13.281-0.354
		l-0.418,2.364c2.059,0.079,3.494,0.473,4.301,1.182c0.807,0.708,1.211,1.852,1.211,3.427c0,1.104-0.195,2.954-0.584,5.554
		l-11.023,58.619c-0.559,2.994-1.129,5.16-1.715,6.501c-0.584,1.339-1.377,2.243-2.379,2.717c-1.004,0.474-2.506,0.788-4.512,0.945
		l-0.332,2.365c2.951-0.238,7.57-0.356,13.865-0.356c2.411,0,4.613,0.026,6.623,0.077c-0.088-0.139-0.159-0.27-0.137-0.359
		c0.174-0.695,0.436-1.348,0.708-2.143c0.286,0.428,0.531,0.689,0.502,0.77c-0.221,0.595-0.476,1.166-0.729,1.74
		c2.212,0.059,4.18,0.149,5.894,0.271l0.334-2.365c-2.061-0.078-3.494-0.511-4.301-1.301c-0.809-0.787-1.213-2.008-1.213-3.664
		c0-1.573,0.195-3.309,0.586-5.198l3.926-21.037c6.736,0,12.723-1.377,17.957-4.136c5.232-2.757,9.299-6.578,12.195-11.464
		c2.895-4.885,4.342-10.4,4.342-16.545C459.535,237.15,452.992,231.2,439.908,231.2z M417.768,291.777
		c-0.192-0.531-0.391-1.062-0.561-1.607c-0.003-0.012,0.307-0.195,0.63-0.401c0.147,0.585,0.298,1.136,0.399,1.704
		C418.246,291.521,417.934,291.674,417.768,291.777z M443.623,261.986c-1.307,4.925-3.438,8.964-6.389,12.114
		c-2.953,3.151-6.738,4.727-11.357,4.727h-0.336l6.6-35.218c0.557-3.149,1.016-5.355,1.379-6.618
		c0.359-1.259,0.82-2.166,1.377-2.718c0.555-0.55,1.42-0.827,2.59-0.827c2.84,0,4.898,1.063,6.18,3.191
		c1.281,2.126,1.922,5.358,1.922,9.69C445.588,251.843,444.932,257.063,443.623,261.986z M449.424,268.209
		c-0.039,0.033-0.234-0.115-0.229-0.163c0.016-0.216,0.078-0.425,0.123-0.636c0.149,0.118,0.302,0.238,0.475,0.374
		C449.671,267.934,449.561,268.103,449.424,268.209z M454.019,247.121c0.019-0.208,0.003-0.571,0.059-0.593
		c0.171-0.064,0.393-0.054,0.548,0.051c0.12,0.083,0.166,0.347,0.288,0.628C454.571,247.174,454.293,247.147,454.019,247.121z"/>
	<path fill="#A59431" d="M229.6,276.323c-0.222-0.071-0.49-0.225-0.978-0.439c0.495-0.308,0.781-0.484,0.978-0.607v-45.121h-11.972
		v84.6h1.036c0.211-0.362,0.378-0.871,0.65-1.008c0.227-0.111,0.588,0.246,1.173,0.54c-0.133,0.167-0.246,0.323-0.348,0.468h21.78
		v-14.378H229.6V276.323z M219.184,278.486c0.374-0.331,0.574-0.505,0.772-0.678c0.16,0.331,0.417,0.652,0.449,1.001
		c0.021,0.265-0.248,0.57-0.387,0.858C219.78,279.329,219.542,278.991,219.184,278.486z M220.977,311.633
		c-0.58-1.008-0.978-1.521-1.175-2.145c-0.069-0.221,0.483-1.058,0.532-1.025c0.569,0.368,1.096,0.85,1.635,1.304
		C221.698,310.275,221.426,310.785,220.977,311.633z M223.9,295.441c-0.182-0.24-0.39-0.457-0.521-0.738
		c-0.032-0.066,0.265-0.515,0.289-0.498c0.227,0.165,0.425,0.389,0.636,0.604C224.13,295.083,224.015,295.263,223.9,295.441z
		 M227.74,308.674c-0.166,0.369-0.43,0.66-0.657,0.983c-0.056-0.237-0.115-0.473-0.225-0.917c0.23-0.234,0.505-0.518,0.781-0.799
		C227.679,308.19,227.812,308.514,227.74,308.674z"/>
	<path fill="#A59431" d="M400.32,254.364c1.168-8.509,2.811-16.545,4.928-24.109h-1.672c-0.557,2.207-1.043,3.803-1.463,4.787
		c-0.416,0.986-0.85,1.477-1.293,1.477c-0.389,0-1.309-0.63-2.756-1.89c-1.783-1.575-3.703-2.837-5.764-3.782
		c-2.062-0.945-4.539-1.418-7.434-1.418c-3.287,0-6.515,0.887-9.688,2.66c-3.175,1.772-5.778,4.451-7.811,8.037
		c-2.033,3.585-3.048,7.899-3.048,12.94c0,3.152,0.403,6.106,1.211,8.864c0.806,2.758,1.796,5.221,2.965,7.386
		c1.169,2.167,2.757,4.866,4.762,8.095c0.079,0.122,0.15,0.238,0.228,0.359c0.209,0.199,0.394,0.374,0.574,0.542
		c-0.04,0.046-0.082,0.108-0.123,0.168c2.609,4.131,4.602,7.817,5.961,11.044c1.474,3.507,2.212,7.465,2.212,11.876
		c0,8.275-3.59,12.411-10.773,12.411c-4.456,0-7.838-1.556-10.148-4.669c-2.312-3.112-3.467-7.622-3.467-13.531
		c0-2.601,0.251-5.396,0.752-8.391h-1.67c-1.169,7.484-2.186,13.335-3.048,17.55c-0.863,4.215-1.74,7.818-2.631,10.814h1.67
		c0.78-2.601,1.378-4.315,1.796-5.142c0.417-0.829,0.988-1.241,1.712-1.241c0.723,0,1.698,0.59,2.923,1.771
		c2.171,1.893,4.231,3.271,6.181,4.136c1.948,0.867,4.705,1.303,8.269,1.303c3.508,0,7.029-0.848,10.565-2.544
		c3.536-1.692,6.502-4.311,8.896-7.856c2.393-3.546,3.59-7.957,3.59-13.238c0-3.148-0.473-6.146-1.418-8.98
		c-0.947-2.837-2.09-5.437-3.426-7.801s-3.174-5.277-5.512-8.745c-3.119-4.729-5.443-8.688-6.976-11.878
		c-1.531-3.19-2.296-6.597-2.296-10.222c0-4.332,0.933-7.563,2.798-9.691c1.864-2.127,4.302-3.19,7.308-3.19
		c3.844,0,6.793,1.399,8.855,4.194c2.059,2.798,3.09,6.56,3.09,11.286c0,2.128-0.168,4.335-0.502,6.619H400.32z M387.922,271.029
		c0.257,0.275,0.431,0.464,0.604,0.651c-0.224,0.193-0.438,0.447-0.686,0.548c-0.109,0.045-0.291-0.214-0.443-0.334
		C387.549,271.64,387.703,271.389,387.922,271.029z M378.757,260.658c0.225,0.235,0.663,0.604,0.636,0.685
		c-0.379,1.068-0.82,2.1-1.331,3.345c-0.572-0.612-0.978-1.016-0.967-1.04C377.626,262.63,378.195,261.647,378.757,260.658z"/>
	<path fill="#A59431" d="M269.83,273.342c-1.067-2.002-2.413-4.12-4.037-6.353l-6.96-9.454c-2.227-2.955-3.341-5.811-3.341-8.569
		c0-1.246,0.232-2.23,0.696-2.954c0.463-0.722,1.159-1.083,2.087-1.083c0.789,0,1.403,0.329,1.844,0.984
		c0.441,0.657,0.662,1.544,0.662,2.659l0.069,5.811h12.181c0-8.601-1.184-14.921-3.55-18.958c-2.367-4.038-6.242-6.057-11.624-6.057
		c-0.718,0-1.398,0.065-2.061,0.162c-0.048,0.196-0.104,0.39-0.163,0.579c-0.166,0.526-0.363,1.034-0.545,1.55
		c-0.035-0.52-0.069-1.039-0.088-1.319c0.027-0.26,0.039-0.48,0.052-0.681c-3.141,0.648-5.634,2.429-7.461,5.373
		c-2.344,3.775-3.515,9.274-3.515,16.496c0,6.697,1.995,12.803,5.986,18.318l5.151,7.289c1.855,2.561,3.143,4.448,3.863,5.662
		c0.719,1.216,1.311,2.726,1.775,4.53c0.463,1.807,0.695,4.087,0.695,6.846c0,2.101-0.208,3.593-0.626,4.48
		c-0.417,0.887-1.16,1.329-2.228,1.329c-1.903,0-2.854-2.101-2.854-6.303v-10.538h-11.763v8.272c0,8.471,1.206,14.608,3.619,18.418
		c2.413,3.809,6.334,5.711,11.763,5.711c4.965,0,8.526-2.149,10.684-6.452c2.157-4.299,3.236-10.619,3.236-18.957
		c0-3.742-0.325-6.975-0.974-9.701C271.754,277.709,270.896,275.345,269.83,273.342z M267.259,247.116
		c0.158-0.054,0.403,0.342,0.609,0.531c-0.47,0.508-0.938,1.016-1.421,1.534c-0.63-0.513-0.999-0.814-1.368-1.114
		C265.802,247.735,266.518,247.364,267.259,247.116z M255.971,243.308c0.056,0.216,0.11,0.435,0.166,0.651
		c-0.112,0.193-0.224,0.383-0.333,0.575c-0.08-0.283-0.211-0.561-0.219-0.844C255.582,243.57,255.835,243.436,255.971,243.308z
		 M254.886,269.097c-0.192,0.481-0.614,0.799-0.936,1.189c0.057-0.567,0.033-1.176,0.193-1.687c0.216-0.702,0.572-1.331,0.871-1.993
		c0.064,0.208,0.209,0.43,0.188,0.623C255.137,267.865,255.103,268.551,254.886,269.097z M249.21,303.889
		c-0.558,0.224-1.127,0.4-1.691,0.596c0.016-0.23-0.019-0.617,0.056-0.66c0.634-0.363,1.28-0.684,1.94-0.954
		c0.085-0.035,0.256,0.288,0.467,0.54C249.703,303.589,249.467,303.787,249.21,303.889z M253.254,289.674
		c-0.067-0.229-0.243-0.558-0.185-0.672c0.321-0.61,0.698-1.168,1.08-1.716c0.008-0.014,0.315,0.339,0.703,0.757
		C254.21,288.694,253.732,289.186,253.254,289.674z"/>
	<path fill="#A59431" d="M578.137,247.627c0-5.594-1.627-9.73-4.885-12.409c-3.258-2.677-8.283-4.018-15.076-4.018
		c-2.285,0-4.064,0.04-5.346,0.118l-1.581,0.026c-0.097,0.319-0.196,0.659-0.296,1.049c-0.194-0.386-0.381-0.72-0.559-1.035
		l-4.748,0.078c-5.568,0-9.771-0.118-12.611-0.354l-0.418,2.364c2.115,0.079,3.576,0.473,4.385,1.182
		c0.807,0.708,1.211,1.852,1.211,3.427c0,0.868-0.25,2.719-0.752,5.554l-6.376,34.162c0.019-0.019,0.038-0.038,0.058-0.057
		c0.088,0.161,0.176,0.318,0.264,0.476c-0.148,0.082-0.297,0.164-0.445,0.246l-1.266,6.782c0.007,0.294-0.071,0.616-0.098,0.922
		c-0.018-0.021-0.043-0.043-0.062-0.064l-2.698,14.454c0.247-0.049,0.493-0.09,0.74-0.109c0.278-0.021,0.58,0.445,0.976,0.777
		c-0.336,0.497-0.492,0.951-0.709,1.008c-0.44,0.118-0.896,0.141-1.352,0.168c-0.549,2.916-1.109,5.037-1.684,6.355
		c-0.586,1.339-1.379,2.243-2.381,2.717s-2.506,0.788-4.51,0.945l-0.334,2.365c2.951-0.238,7.516-0.356,13.697-0.356
		c5.346,0,9.689,0.118,13.029,0.356l0.334-2.365c-2.117-0.078-3.592-0.453-4.426-1.123c-0.836-0.667-1.254-1.751-1.254-3.249
		c0-1.101,0.277-3.031,0.836-5.791l5.178-27.654c4.121,0.158,6.975,1.083,8.561,2.777c1.588,1.695,2.383,4.354,2.383,7.977
		c0,0.709-0.059,2.009-0.168,3.9l-1.254,13.471c-0.055,0.474-0.084,1.223-0.084,2.248c0,3.543,0.85,6.342,2.549,8.392
		c1.697,2.045,4.246,3.072,7.643,3.072c3.451,0,6.18-1.166,8.186-3.489c2.004-2.32,3.535-5.966,4.594-10.931l0.334-1.537h-1.922
		l-0.418,1.655c-0.779,2.917-1.559,5.064-2.338,6.442c-0.781,1.38-1.699,2.068-2.756,2.068c-1.783,0-2.674-1.891-2.674-5.673
		c0-1.104,0.029-1.97,0.084-2.601l1.168-12.173c0.111-1.259,0.168-2.128,0.168-2.601c0-4.647-1.309-7.917-3.924-9.809
		c-2.619-1.891-6.461-3.19-11.527-3.9c7.518-1.182,13.488-4.116,17.916-8.805C575.924,260.373,578.137,254.562,578.137,247.627z
		 M535.506,288.254c-0.049,0.047-0.246-0.172-0.377-0.27c0.16-0.269,0.322-0.535,0.479-0.792c0.188,0.134,0.318,0.225,0.449,0.317
		C535.877,287.767,535.715,288.048,535.506,288.254z M539.284,285.277c-0.118,0.015-0.251-0.198-0.38-0.309
		c0.139-0.144,0.278-0.286,0.414-0.427c0.123,0.123,0.246,0.251,0.369,0.374C539.554,285.045,539.426,285.258,539.284,285.277z
		 M543.996,238.174c-0.773,2.042-1.629,4.03-2.47,6.023c-0.024,0.059-0.185,0.021-0.385,0.035c-0.073-0.299-0.278-0.681-0.214-0.957
		c0.446-1.891,0.908-3.778,1.462-5.617c0.097-0.317,0.684-0.604,0.983-0.518C543.637,237.215,544.066,237.989,543.996,238.174z
		 M562.826,263.715c-0.169-0.283-0.358-0.55-0.486-0.863c-0.027-0.067,0.174-0.294,0.31-0.516c0.198,0.24,0.443,0.447,0.562,0.738
		C563.25,263.17,562.962,263.496,562.826,263.715z M559.555,265.414c-0.67,0.916-1.394,1.716-2.146,2.453
		c0.705,0.585,1.325,1.044,1.848,1.636c0.945,1.072,0.729,2.116-0.465,2.581c-0.874,0.339-3.02-1.632-2.806-2.696
		c0.026-0.134,0.079-0.259,0.138-0.383c-2.852,2.276-6.224,3.44-10.143,3.44h-0.668l5.848-31.2c0.557-3.072,1.238-5.14,2.045-6.204
		c0.807-1.064,2.047-1.596,3.717-1.596c2.617,0,4.566,1.004,5.848,3.013c1.279,2.01,1.92,5.142,1.92,9.396
		C564.689,254.206,562.979,260.727,559.555,265.414z M568.402,253.953c-0.187,0.029-0.542-0.331-0.582-0.585
		c-0.04-0.256,0.222-0.593,0.35-0.892c0.232,0.176,0.465,0.358,0.797,0.612C568.736,253.468,568.587,253.924,568.402,253.953z"/>
	<path fill="#A59431" d="M337.702,290.666c-0.176,0.043-0.43-0.479-0.649-0.742c0.601-0.396,1.188-0.832,1.812-1.154
		c0.058-0.03,0.165,0.097,0.334,0.311c-0.057-3.289-0.364-6.187-0.951-8.648c-0.651-2.723-1.508-5.087-2.576-7.09
		c-1.068-2.002-2.413-4.12-4.037-6.353l-6.96-9.454c-2.228-2.955-3.341-5.811-3.341-8.569c0-1.246,0.231-2.23,0.696-2.954
		c0.463-0.722,1.159-1.083,2.088-1.083c0.788,0,1.403,0.329,1.844,0.984c0.44,0.657,0.661,1.544,0.661,2.659l0.07,5.811h12.18
		c0-8.601-1.183-14.921-3.55-18.958c-2.366-4.038-6.241-6.057-11.624-6.057c-4.501,0-7.924,1.889-10.267,5.664
		c-2.344,3.775-3.516,9.274-3.516,16.496c0,6.697,1.996,12.803,5.986,18.318l5.151,7.289c1.855,2.561,3.143,4.448,3.863,5.662
		c0.719,1.216,1.311,2.726,1.775,4.53c0.462,1.807,0.695,4.087,0.695,6.846c0,2.101-0.208,3.593-0.626,4.48
		c-0.417,0.887-1.16,1.329-2.227,1.329c-1.904,0-2.854-2.101-2.854-6.303v-10.538h-11.763v8.272c0,8.471,1.207,14.608,3.62,18.418
		c2.412,3.809,6.333,5.711,11.763,5.711c4.965,0,8.527-2.149,10.684-6.452c2.158-4.299,3.237-10.619,3.237-18.957
		c0-0.039-0.002-0.073-0.002-0.111C338.613,290.318,338.163,290.555,337.702,290.666z M335.57,240.492
		c0.091-0.107,0.457,0.195,0.694,0.311c0.176,0.298,0.356,0.594,0.532,0.891c-0.393,0.142-0.778,0.356-1.179,0.394
		c-0.216,0.019-0.449-0.261-0.676-0.405C335.142,241.274,335.303,240.8,335.57,240.492z M330.936,249.627
		c0.928,0.646,1.673,1.063,2.325,1.662c0.363,0.334,0.567,0.97,0.839,1.47c-0.519,0.339-1.293,1.141-1.51,0.932
		c-0.826-0.796-1.491-1.897-2.157-2.95C330.37,250.641,330.728,250.079,330.936,249.627z M326.386,271.291
		c-0.051,0.011-0.238-0.524-0.22-0.543c0.211-0.2,0.455-0.353,0.69-0.516c0.066,0.194,0.131,0.393,0.237,0.713
		C326.858,271.074,326.629,271.234,326.386,271.291z M311.355,289.412c-0.388-0.357-0.783-0.699-1.144-1.098
		c-0.048-0.051,0.094-0.396,0.486-1.91c0.393,1.213,0.607,1.814,0.772,2.438C311.51,288.994,311.397,289.221,311.355,289.412z
		 M315.341,301.585c-0.262-0.716-0.523-1.106-0.457-1.302c0.385-1.131,0.85-2.212,1.286-3.311c0.256,0.534,0.823,1.246,0.716,1.571
		C316.56,299.543,315.975,300.398,315.341,301.585z M316.001,310.254c-0.062,0.01-0.283-0.703-0.258-0.723
		c0.4-0.339,0.812-0.713,1.261-0.871c0.211-0.071,0.511,0.303,1.352,0.861C317.051,309.948,316.533,310.146,316.001,310.254z
		 M329.865,291.516c-0.099-0.344-0.219-0.662-0.254-0.999c-0.011-0.075,0.398-0.321,0.414-0.294
		c0.155,0.272,0.283,0.578,0.366,0.897C330.401,291.158,330.103,291.34,329.865,291.516z"/>
	<path fill="#A59431" d="M650.385,215.777c-1.168-1.613-2.727-2.422-4.676-2.422c-2.006,0-3.605,0.906-4.803,2.718
		c-1.199,1.813-1.797,4.136-1.797,6.973c0,1.891,0.277,3.645,0.836,5.259c0.555,1.616,1.252,2.975,2.088,4.077
		c-2.172,1.025-5.123,1.537-8.854,1.537c-2.785,0-7.238-0.394-13.363-1.182c-6.682-0.946-11.859-1.418-15.535-1.418
		c-4.734,0-8.465,0.946-11.193,2.836c-1.893,1.341-3.271,3.033-4.135,5.082c-0.863,2.05-1.293,4.177-1.293,6.382
		c0,2.679,0.543,4.905,1.627,6.678c1.088,1.771,2.549,2.658,4.387,2.658c1.893,0,3.451-0.963,4.678-2.895
		c1.223-1.93,1.836-4.274,1.836-7.032c0-2.363-0.473-4.391-1.42-6.086c-0.154-0.277-0.327-0.519-0.496-0.767
		c-0.318,0.21-0.664,0.5-0.879,0.381c-0.561-0.314-1.025-0.935-1.531-1.431c0.285-0.245,0.59-0.711,0.848-0.693
		c-0.479-0.394-0.981-0.736-1.533-0.977c1.672-1.338,4.816-2.009,9.439-2.009c2.504,0,5.846,0.277,10.023,0.827l-12.613,66.772
		c-0.557,2.997-1.211,5.259-1.963,6.796s-1.781,2.641-3.09,3.309c-1.309,0.672-3.16,1.084-5.555,1.241l-0.334,2.365
		c3.174-0.238,8.072-0.356,14.701-0.356c6.793,0,11.943,0.118,15.451,0.356l0.334-2.365c-2.562-0.157-4.357-0.67-5.387-1.537
		c-1.031-0.865-1.545-2.321-1.545-4.372c0-1.26,0.223-3.072,0.668-5.437l12.277-65c2.227,0.16,3.842,0.236,4.844,0.236
		c5.9,0,10.553-1.141,13.949-3.427c3.842-2.677,5.764-6.42,5.764-11.227C652.141,219.344,651.555,217.394,650.385,215.777z
		 M605.863,311.878c-0.486-0.38-0.903-0.919-1.347-1.395c0.271-0.054,0.58-0.252,0.8-0.14c0.518,0.262,0.996,0.674,1.937,1.345
		C606.412,311.819,606.056,312.027,605.863,311.878z M607.451,297.71c-0.035-0.513-0.1-1.028-0.097-1.542
		c0.003-0.379,0.097-0.756,0.149-1.136c0.091,0.448,0.185,0.898,0.277,1.342C607.662,296.857,607.558,297.283,607.451,297.71z"/>
	<path fill="#A59431" d="M301.777,230.156h-20.254l-1.997,29.234c0.167,0.136,0.329,0.273,0.34,0.429
		c0.027,0.417-0.155,0.854-0.307,1.55c-0.054-0.059-0.104-0.106-0.157-0.159l-3.657,53.546h11.624l0.696-13.69h7.238l0.835,13.69
		h11.345L301.777,230.156z M279.297,295.57c-0.176-0.609-0.388-0.977-0.334-1.26c0.053-0.272,0.35-0.57,0.582-0.654
		c0.211-0.078,0.481,0.12,0.722,0.195C280.053,294.23,279.842,294.607,279.297,295.57z M294.21,251.313
		c0.872,0.189,1.256,0.275,1.641,0.358c-0.694,0.906-1.39,1.812-2.084,2.718c-0.23-0.379-0.62-0.732-0.658-1.141
		C292.959,251.698,293.476,251.004,294.21,251.313z M288.97,287.572l0.533-10.29c-0.111-0.086-0.223-0.176-0.335-0.25
		c0.127-0.16,0.246-0.36,0.375-0.516l1.655-31.982h0.557l2.645,43.038H288.97z M294.798,265.954
		c-0.243-0.515-0.459-1.063-0.612-1.635c-0.016-0.071,0.393-0.336,0.606-0.513c0.203,0.54,0.409,1.083,0.679,1.801
		C295.172,265.762,294.816,265.997,294.798,265.954z M296.768,287.66c-0.321-0.623-0.661-1.231-0.933-1.889
		c-0.026-0.07,0.446-0.676,0.53-0.621c0.451,0.3,0.852,0.73,1.477,1.308C297.312,287.049,297.04,287.355,296.768,287.66z"/>
	<path fill="#A59431" d="M213.346,300.361c-0.107-0.34-0.193-0.698-0.257-1.057c-0.005-0.018,0.278-0.162,0.283-0.146
		c0.103,0.248,0.195,0.511,0.291,0.787v-1.638h-12.529v-19.401h11.275v-15.955h-4.404c-0.041,0.664-0.353,1.459-0.646,2.744
		c-0.721-1.334-1.28-1.984-1.407-2.744h-4.819v-16.447h8.202c-0.17-0.292-0.348-0.578-0.506-0.88
		c-0.021-0.038,0.211-0.31,0.326-0.47c0.278,0.451,0.554,0.9,0.83,1.35h2.911v-16.348h-23.943v84.6h1.898
		c0.492-0.545,1.212-0.915,1.785-1.397c0.12,0.286,0.243,0.574,0.367,0.86c0.764-0.463,1.514-0.986,2.306-1.355
		c0.267-0.123,0.66,0.08,0.951,0.26c0.129,0.08,0.263,0.582,0.201,0.689c-0.206,0.336-0.503,0.817-0.767,0.82l-2.691-0.414
		l-1.208,0.537h21.867v-14.503C213.515,300.311,213.352,300.379,213.346,300.361z M206.007,271.229
		c1.13-0.265,1.956,0.449,1.804,2.672c-0.025,0.035-0.308,0.586-0.444,0.53c-0.869-0.367-1.707-0.866-2.555-1.321
		C205.206,272.453,205.537,271.338,206.007,271.229z M194.031,252.705c-0.254,0.054-0.585-0.558-0.879-0.871
		c0.329-0.433,0.612-1.026,1.007-1.227c0.219-0.109,0.63,0.444,1.256,0.933C194.789,252.102,194.435,252.625,194.031,252.705z
		 M200.046,267.354c-0.174-0.035-0.364-0.204-0.468-0.393c-0.056-0.099,0.051-0.358,0.085-0.545
		c0.246,0.152,0.498,0.302,0.775,0.473C200.268,267.104,200.139,267.374,200.046,267.354z"/>
</g>
<g>
	<path fill="#FFFFFF" d="M346.075,384.835c0.399,0.288,0.813,0.403,1.241,0.344l-0.002,0.734c-0.957,0.113-2.247,0.33-3.872,0.648
		c-1.908,0.374-3.314,0.687-4.219,0.938l0.003-0.734c0.791-0.204,1.39-0.425,1.796-0.664c0.405-0.238,0.662-0.582,0.77-1.031
		c0.107-0.449,0.071-1.071-0.109-1.868l-1.454-5.731l-8.69,1.704l-1.916,4.264c-0.802,1.771-1.127,3.046-0.975,3.823
		c0.189,0.966,1.16,1.302,2.912,1.007l-0.038,0.741c-1.31,0.183-2.659,0.411-4.048,0.684c-1.012,0.198-1.889,0.406-2.629,0.625
		l0.039-0.741c1.037-0.447,2.014-1.703,2.93-3.766l11.029-24.394l0.53-0.104l5.769,21.944
		C345.365,384.021,345.676,384.546,346.075,384.835z M340.055,376.771l-2.699-10.587l-5.462,12.187L340.055,376.771z"/>
	<path fill="#FFFFFF" d="M352.594,384.88c0.232,0.017,0.55-0.004,0.955-0.06c1.069-0.149,1.893-0.591,2.469-1.325
		s0.784-1.684,0.622-2.849c-0.105-0.761-0.352-1.483-0.738-2.169c-0.386-0.686-0.977-1.445-1.771-2.279
		c-0.96-0.981-1.674-1.797-2.14-2.447c-0.466-0.649-0.765-1.45-0.897-2.401c-0.135-0.975-0.007-1.883,0.384-2.725
		c0.392-0.842,0.98-1.536,1.765-2.081c0.784-0.545,1.676-0.887,2.674-1.026c1.236-0.172,2.302-0.083,3.199,0.265
		s1.424,1.092,1.583,2.233c0.06,0.428-0.02,0.862-0.237,1.305s-0.599,0.701-1.146,0.777c-0.405,0.056-0.763-0.039-1.076-0.287
		c-0.313-0.247-0.5-0.585-0.559-1.013c-0.105-0.76,0.116-1.603,0.667-2.527c-0.492-0.223-1.106-0.282-1.843-0.18
		c-0.903,0.125-1.604,0.531-2.102,1.219c-0.499,0.688-0.674,1.554-0.529,2.6c0.086,0.618,0.267,1.132,0.542,1.542
		c0.275,0.41,0.757,1.003,1.447,1.779l0.771,0.838c0.865,0.995,1.524,1.86,1.979,2.597c0.453,0.736,0.738,1.521,0.854,2.353
		c0.149,1.07,0.003,2.071-0.436,3.005c-0.44,0.934-1.096,1.703-1.969,2.31c-0.874,0.605-1.856,0.984-2.95,1.137
		c-1.355,0.188-2.537,0.056-3.544-0.397c-1.008-0.453-1.595-1.274-1.76-2.463c-0.056-0.404,0.006-0.788,0.185-1.152
		c0.18-0.364,0.507-0.58,0.982-0.646c0.523-0.073,0.945,0.086,1.266,0.478c0.321,0.392,0.526,0.908,0.615,1.551
		c0.056,0.404,0.059,1.033,0.008,1.889C352.118,384.813,352.362,384.864,352.594,384.88z"/>
	<path fill="#FFFFFF" d="M365.979,383.119c0.232,0.024,0.55,0.016,0.957-0.026c1.074-0.111,1.912-0.523,2.514-1.237
		c0.602-0.714,0.842-1.655,0.721-2.825c-0.079-0.764-0.299-1.494-0.661-2.193c-0.362-0.698-0.925-1.479-1.689-2.341
		c-0.925-1.014-1.609-1.854-2.052-2.521c-0.443-0.665-0.713-1.476-0.812-2.431c-0.102-0.979,0.059-1.882,0.48-2.71
		c0.421-0.827,1.033-1.5,1.836-2.018c0.803-0.518,1.706-0.828,2.708-0.932c1.241-0.128,2.304-0.003,3.188,0.376
		c0.883,0.38,1.384,1.142,1.503,2.288c0.044,0.43-0.05,0.861-0.282,1.296c-0.233,0.435-0.624,0.68-1.172,0.736
		c-0.406,0.042-0.761-0.066-1.065-0.324c-0.305-0.258-0.479-0.603-0.523-1.032c-0.079-0.764,0.172-1.598,0.754-2.502
		c-0.483-0.24-1.095-0.321-1.834-0.245c-0.908,0.094-1.622,0.476-2.144,1.145s-0.729,1.529-0.62,2.579
		c0.064,0.621,0.227,1.142,0.487,1.561c0.26,0.42,0.722,1.029,1.383,1.829l0.741,0.864c0.83,1.024,1.458,1.913,1.886,2.665
		c0.427,0.752,0.685,1.546,0.771,2.381c0.111,1.074-0.07,2.07-0.542,2.987c-0.472,0.918-1.155,1.664-2.048,2.239
		c-0.894,0.574-1.89,0.919-2.988,1.032c-1.361,0.141-2.537-0.033-3.528-0.521c-0.992-0.489-1.549-1.33-1.672-2.523
		c-0.042-0.406,0.033-0.788,0.226-1.146s0.526-0.562,1.004-0.61c0.525-0.055,0.941,0.119,1.248,0.522
		c0.307,0.402,0.494,0.926,0.561,1.57c0.042,0.406,0.022,1.035-0.058,1.888C365.506,383.036,365.747,383.095,365.979,383.119z"/>
	<path fill="#FFFFFF" d="M377.875,370.915c0.694-2.223,1.782-4.135,3.263-5.736s3.263-2.473,5.347-2.61
		c1.532-0.103,2.767,0.291,3.704,1.179c0.938,0.888,1.468,2.266,1.593,4.133c0.125,1.893-0.159,3.95-0.853,6.173
		c-0.695,2.223-1.782,4.136-3.263,5.736c-1.481,1.603-3.263,2.473-5.347,2.611c-1.533,0.102-2.768-0.292-3.705-1.18
		c-0.937-0.887-1.467-2.266-1.592-4.133C376.897,375.196,377.181,373.139,377.875,370.915z M383.005,365.866
		c-0.986,1.629-1.731,3.633-2.234,6.011c-0.504,2.379-0.684,4.646-0.54,6.802c0.071,1.077,0.292,1.856,0.66,2.337
		s0.9,0.698,1.595,0.651c1.222-0.081,2.325-0.936,3.312-2.565c0.986-1.629,1.73-3.633,2.234-6.011
		c0.503-2.379,0.683-4.646,0.54-6.801c-0.072-1.078-0.292-1.857-0.661-2.338c-0.369-0.48-0.9-0.697-1.595-0.651
		C385.095,363.382,383.991,364.237,383.005,365.866z"/>
	<path fill="#FFFFFF" d="M401.47,364.568c-1.149,1.33-2.071,3.073-2.765,5.23s-1.006,4.411-0.938,6.763
		c0.034,1.175,0.281,2.039,0.742,2.589c0.46,0.551,1.086,0.814,1.877,0.792c1.967-0.058,3.731-1.31,5.293-3.756l0.729,0.267
		c-0.729,1.342-1.734,2.506-3.014,3.491c-1.28,0.985-2.64,1.5-4.079,1.542c-1.463,0.042-2.634-0.374-3.512-1.248
		c-0.878-0.875-1.342-2.176-1.393-3.903c-0.057-1.943,0.338-4.044,1.186-6.302c0.846-2.257,2.075-4.178,3.686-5.762
		c1.61-1.583,3.471-2.406,5.582-2.468c1.104-0.032,2.035,0.218,2.795,0.747c0.76,0.53,1.153,1.263,1.181,2.198
		c0.021,0.744-0.199,1.417-0.661,2.019c-0.463,0.603-1.066,0.913-1.81,0.936c-0.48,0.014-0.85-0.107-1.109-0.364
		s-0.396-0.588-0.407-0.996c-0.02-0.672,0.228-1.262,0.741-1.769c0.513-0.507,1.14-0.844,1.879-1.01
		c-0.525-0.729-1.352-1.077-2.479-1.044C403.794,362.556,402.62,363.238,401.47,364.568z"/>
	<path fill="#FFFFFF" d="M415.282,363.953c0.001-0.6-0.263-0.9-0.791-0.901c-0.552,0-1.044,0.287-1.477,0.862
		c-0.433,0.576-0.89,1.512-1.371,2.807l-0.505,1.332l-0.685-0.001l0.938-2.627c0.481-1.367,1.124-2.326,1.93-2.878
		c0.804-0.551,1.65-0.826,2.539-0.825c1.584,0.002,2.375,0.758,2.373,2.271c-0.001,0.792-0.194,1.716-0.579,2.771l-3.863,10.903
		c-0.192,0.576-0.289,1.021-0.289,1.332c-0.001,0.601,0.287,0.9,0.863,0.901c0.504,0,0.972-0.275,1.404-0.827
		c0.433-0.551,0.901-1.498,1.407-2.843l0.506-1.331l0.684,0.001l-0.938,2.627c-0.482,1.319-1.113,2.267-1.894,2.842
		s-1.627,0.862-2.539,0.861c-1.68-0.002-2.519-0.734-2.518-2.198c0.001-0.696,0.218-1.644,0.651-2.844l3.863-10.904
		C415.185,364.709,415.282,364.265,415.282,363.953z M416.894,354.217c0.541-0.563,1.158-0.845,1.855-0.845
		c0.552,0.001,0.995,0.182,1.331,0.542c0.335,0.36,0.503,0.805,0.503,1.332c-0.001,0.721-0.278,1.356-0.83,1.907
		c-0.553,0.552-1.178,0.827-1.873,0.826c-0.528,0-0.96-0.175-1.296-0.523c-0.336-0.348-0.503-0.786-0.502-1.314
		C416.083,355.422,416.354,354.78,416.894,354.217z"/>
	<path fill="#FFFFFF" d="M436.512,375.394l0.684,0.025l-0.996,2.594c-0.529,1.301-1.176,2.232-1.941,2.792
		c-0.766,0.561-1.543,0.826-2.334,0.797c-0.457-0.017-0.85-0.116-1.178-0.296c-0.33-0.181-0.586-0.418-0.768-0.713
		c-0.201-0.367-0.295-0.791-0.277-1.271c0.02-0.504,0.123-1.064,0.314-1.682s0.312-1.009,0.367-1.176l0.744-2.566
		c-1.25,2.645-2.492,4.55-3.723,5.717c-1.232,1.168-2.496,1.728-3.791,1.68c-1.104-0.04-1.928-0.467-2.475-1.279
		c-0.546-0.812-0.795-1.879-0.746-3.198c0.071-1.942,0.667-4.094,1.786-6.454c1.119-2.36,2.539-4.35,4.256-5.968
		c1.717-1.617,3.426-2.396,5.129-2.333c0.646,0.024,1.166,0.283,1.557,0.778c0.389,0.495,0.605,1.175,0.645,2.041l0.658-2.209
		c1.32,0,2.43-0.127,3.328-0.382l-5.082,15.735c-0.027,0.095-0.082,0.279-0.164,0.553c-0.082,0.272-0.129,0.529-0.137,0.77
		c-0.023,0.6,0.23,0.908,0.758,0.928c1.055,0.039,2.023-1.15,2.906-3.567L436.512,375.394z M427.166,378.725
		c0.973-0.997,1.941-2.336,2.904-4.019c0.963-1.681,1.768-3.482,2.414-5.404l0.742-2.53c0.029-0.191,0.053-0.454,0.064-0.79
		c0.037-0.983-0.109-1.764-0.436-2.34c-0.328-0.576-0.803-0.876-1.426-0.899c-1.031-0.038-2.152,0.72-3.363,2.272
		c-1.209,1.553-2.248,3.483-3.113,5.793s-1.336,4.496-1.412,6.559c-0.035,0.983,0.047,1.694,0.246,2.135
		c0.201,0.439,0.504,0.667,0.912,0.682C425.369,380.207,426.193,379.722,427.166,378.725z"/>
	<path fill="#FFFFFF" d="M443.082,378.688c-0.094,0.281-0.15,0.542-0.17,0.78c-0.037,0.479,0.078,0.85,0.346,1.111
		c0.27,0.262,0.631,0.41,1.084,0.446c0.598,0.047,1.176-0.166,1.73-0.641c0.555-0.474,1.137-1.373,1.746-2.697l0.613-1.36
		l0.682,0.054l-0.932,2.201c-0.619,1.444-1.354,2.439-2.203,2.987c-0.85,0.547-1.859,0.774-3.033,0.682
		c-1.076-0.084-1.857-0.411-2.342-0.979s-0.691-1.317-0.617-2.251c0.049-0.622,0.209-1.295,0.484-2.021l4.842-12.908l-3.23-0.254
		l0.236-0.703l3.229,0.254l2.008-5.331c1.297,0.054,2.387-0.029,3.27-0.249l-2.154,5.825l4.738,0.372l-0.164,0.709l-4.846-0.38
		L443.082,378.688z"/>
	<path fill="#FFFFFF" d="M458.156,366.338c0.068-0.597-0.16-0.925-0.684-0.984c-0.549-0.062-1.07,0.167-1.564,0.69
		c-0.496,0.523-1.055,1.401-1.68,2.635l-0.65,1.266l-0.68-0.077l1.229-2.505c0.631-1.305,1.377-2.186,2.24-2.643
		c0.861-0.457,1.732-0.636,2.615-0.534c1.574,0.18,2.275,1.021,2.104,2.522c-0.09,0.787-0.387,1.684-0.887,2.689l-5.066,10.399
		c-0.258,0.551-0.402,0.981-0.438,1.291c-0.068,0.596,0.184,0.927,0.756,0.992c0.5,0.058,0.996-0.163,1.488-0.663
		c0.492-0.499,1.064-1.388,1.719-2.666l0.652-1.267l0.68,0.078l-1.229,2.505c-0.627,1.257-1.361,2.127-2.201,2.61
		s-1.715,0.674-2.619,0.57c-1.67-0.19-2.422-1.014-2.256-2.468c0.08-0.691,0.402-1.608,0.967-2.752l5.066-10.4
		C457.975,367.077,458.121,366.647,458.156,366.338z M460.854,356.845c0.602-0.499,1.246-0.709,1.939-0.63
		c0.547,0.062,0.969,0.291,1.262,0.688c0.293,0.396,0.408,0.856,0.35,1.381c-0.082,0.715-0.43,1.315-1.039,1.801
		c-0.613,0.486-1.264,0.689-1.955,0.61c-0.523-0.06-0.934-0.281-1.229-0.666c-0.295-0.383-0.41-0.838-0.352-1.362
		C459.912,357.95,460.254,357.344,460.854,356.845z"/>
	<path fill="#FFFFFF" d="M464.674,372.656c1.188-2.003,2.688-3.612,4.498-4.829s3.746-1.652,5.805-1.307
		c1.514,0.254,2.625,0.922,3.332,2.002s0.906,2.543,0.596,4.389c-0.314,1.87-1.066,3.807-2.254,5.81
		c-1.189,2.003-2.688,3.612-4.498,4.829s-3.746,1.652-5.805,1.307c-1.516-0.255-2.625-0.922-3.332-2.002s-0.906-2.543-0.596-4.389
		C462.734,376.596,463.484,374.659,464.674,372.656z M470.83,368.927c-1.336,1.358-2.521,3.136-3.561,5.334
		s-1.736,4.362-2.094,6.492c-0.18,1.065-0.145,1.874,0.104,2.427c0.246,0.553,0.715,0.887,1.4,1.002
		c1.207,0.203,2.479-0.374,3.814-1.731c1.334-1.357,2.521-3.136,3.561-5.334c1.037-2.198,1.736-4.362,2.094-6.493
		c0.18-1.064,0.145-1.874-0.104-2.427s-0.715-0.887-1.4-1.002C473.438,366.992,472.166,367.569,470.83,368.927z"/>
	<path fill="#FFFFFF" d="M497.553,385.409l-1.555,2.302c-1.479,2.161-3.203,2.976-5.172,2.443c-1.043-0.281-1.682-0.815-1.918-1.6
		c-0.109-0.328-0.1-0.735,0.031-1.222c0.17-0.626,0.611-1.477,1.324-2.551l5.988-9.048c0.438-0.702,0.707-1.238,0.807-1.608
		c0.219-0.812-0.041-1.317-0.783-1.518c-0.881-0.238-2.057,0.135-3.527,1.116c-1.471,0.982-3.055,2.45-4.75,4.403
		c-1.697,1.953-3.309,4.19-4.836,6.711l-1.311,2.368l-3.023-0.816l8.199-13.782c0.324-0.559,0.521-0.965,0.592-1.221
		c0.156-0.579-0.021-0.938-0.531-1.075s-1.029-0.005-1.561,0.398c-0.533,0.403-1.223,1.211-2.072,2.423l-0.799,1.164l-0.662-0.179
		l1.555-2.302c1.479-2.161,3.18-2.981,5.104-2.462c0.742,0.2,1.221,0.522,1.436,0.966c0.217,0.444,0.236,0.99,0.061,1.639
		c-0.168,0.625-0.584,1.52-1.246,2.684l-2.504,4.433c2.428-3.098,4.518-5.193,6.268-6.287s3.436-1.421,5.057-0.982
		c1.877,0.507,2.58,1.629,2.111,3.367c-0.207,0.765-0.619,1.599-1.236,2.5l-6.113,9.237c-0.336,0.506-0.547,0.921-0.635,1.245
		c-0.15,0.557,0.053,0.909,0.609,1.06c0.463,0.125,0.979-0.015,1.549-0.42c0.57-0.406,1.264-1.206,2.086-2.401l0.799-1.164
		L497.553,385.409z"/>
</g>
</svg>
